<svg width="128" height="102" viewBox="0 0 128 102" fill="none" xmlns="http://www.w3.org/2000/svg">
<path d="M68.1543 67.3823V90.3041C68.1543 90.3041 57.5072 90.3907 57.247 90.3041C56.9867 90.2174 52.5848 86.1227 52.5848 86.1227L47.1853 82.4396C47.1853 82.4396 40.1162 83.9128 39.8777 84.4761C39.6391 85.0394 37.7526 89.3075 37.7526 89.7191C37.7526 90.1307 30.7051 90.9107 30.7051 90.9107L28.6667 83.5012C28.6667 83.5012 31.6592 79.3632 31.8327 79.1465C32.0278 78.9299 38.4031 73.1236 38.4031 73.1236L38.5766 67.3823H68.1543Z" fill="#387FF2"/>
<path d="M82.1412 2.47371C85.7409 0.718831 90.0778 0.50218 93.8292 1.93208C97.1252 3.12366 99.9009 5.52849 101.679 8.53995C104.173 8.17164 106.797 9.01658 108.618 10.7931C111.068 13.1113 111.936 16.9244 110.635 20.0441C109.442 23.0989 106.319 25.2438 103.023 25.2654C84.6133 25.2871 66.2031 25.2654 47.7929 25.2654C46.7955 25.3304 45.7763 24.7888 45.3426 23.8572C44.8005 22.7956 45.1908 21.3874 46.1883 20.7374C47.034 20.1308 48.0965 20.3258 49.0723 20.3041C53.8212 20.2825 58.5702 20.3475 63.3408 20.2825C63.5793 17.206 65.2923 14.2812 67.8294 12.5047C69.8027 11.0964 72.2531 10.4465 74.6601 10.5765C75.9828 7.04505 78.7151 4.09859 82.1412 2.47371ZM79.3656 12.028C81.0136 13.0246 82.4015 14.4545 83.2905 16.1661C83.8977 17.3143 83.3556 18.8742 82.1846 19.4375C81.0136 20.0875 79.4307 19.5458 78.8235 18.3759C77.6525 16.2311 75.007 15.0828 72.6217 15.6461C70.3882 16.1228 68.6318 18.0509 68.2415 20.2825C79.7343 20.3041 91.2487 20.2825 102.742 20.2825C104.39 20.3475 105.973 19.0475 106.168 17.401C106.471 15.5811 105.083 13.6746 103.24 13.4579C101.896 13.1763 100.66 14.4762 99.3371 13.8046C98.1011 13.3496 97.8842 11.9197 97.2554 10.9231C95.2387 7.45669 91.0319 5.42017 87.0419 6.09179C83.7242 6.56842 80.6884 8.90826 79.3656 12.028Z" fill="#00194A"/>
<path d="M35.194 20.4773C36.8637 19.6974 38.9237 21.3222 38.5768 23.1204C38.4033 24.9836 35.9096 25.9369 34.5435 24.6803C33.1123 23.5754 33.5026 21.0623 35.194 20.4773Z" fill="#00194A"/>
<path d="M67.0052 41.5578C68.1979 40.3229 70.5398 40.8645 71.0385 42.4894C71.3638 43.7893 71.1253 45.1542 71.1903 46.4974C78.2378 46.7357 85.2419 48.4689 91.5304 51.6971C97.4503 54.6868 102.698 58.9982 106.926 64.1112C113.085 64.4145 119.005 67.5343 122.778 72.4089C125.532 75.8754 127.093 80.2084 127.353 84.6064V91.236C127.158 92.4059 126.117 93.4241 124.903 93.4025C122.518 93.4458 120.132 93.4025 117.747 93.4241C117.01 96.2839 115.08 98.7971 112.456 100.162C109.42 101.787 105.56 101.765 102.546 100.075C100.009 98.6888 98.1442 96.2189 97.4286 93.4241C83.8758 93.4241 70.3229 93.4241 56.7484 93.4241C56.0762 95.959 54.4932 98.2555 52.2814 99.6854C49.3106 101.657 45.299 101.917 42.1114 100.357C39.3141 99.0354 37.2107 96.4356 36.4517 93.4458C25.6311 93.4241 14.8105 93.4458 3.98996 93.4458C2.99247 93.4241 1.84319 93.5975 0.997496 92.9258C0.455383 92.5575 0.173476 91.9292 0 91.3226V90.7593C0.108423 89.5244 1.19265 88.4412 2.47204 88.4845C10.5821 88.4628 18.7138 88.4845 26.8238 88.4628C26.8238 83.5015 26.8238 78.5185 26.8238 73.5572C24.1783 73.5572 21.5327 73.5572 18.8655 73.5572C18.0415 73.5789 17.1741 73.2322 16.6971 72.5606C16.0032 71.6723 16.0466 70.3074 16.8055 69.4625C17.3043 68.8559 18.1066 68.5742 18.8872 68.5959C22.5302 68.5959 26.1516 68.5959 29.7946 68.5959C31.0739 67.4476 32.3533 66.2994 33.6327 65.1728C33.9363 64.8911 34.2616 64.6095 34.4134 64.1979C35.6711 61.2947 36.6902 58.2399 38.5551 55.6618C42.3499 50.2238 48.7902 46.7357 55.4257 46.5191C59.0253 46.4324 62.6032 46.5191 66.2029 46.4758C66.4197 44.8509 65.7258 42.8577 67.0052 41.5578ZM55.7726 51.4587C50.5033 51.5887 45.3857 54.3835 42.4583 58.7599C41.309 60.3848 40.6585 62.248 39.8562 64.0462C48.6384 64.0895 57.4423 64.0462 66.2246 64.0679C66.2246 59.8648 66.2246 55.6401 66.2246 51.4371C62.755 51.4371 59.2638 51.4154 55.7726 51.4587ZM71.212 51.4804C71.212 55.6834 71.212 59.8865 71.212 64.0895C80.8833 64.0895 90.5329 64.0895 100.204 64.0895C92.593 56.4201 82.0109 51.7837 71.212 51.4804ZM40.6585 69.0508C40.6368 70.6974 40.6802 72.3656 40.6368 74.0338C40.5718 76.4603 39.2273 78.8002 37.1673 80.0784C35.606 81.14 33.6544 81.335 31.8112 81.2267C31.8112 83.6315 31.8112 86.0363 31.8112 88.4412C33.3508 88.4412 34.9121 88.4628 36.4517 88.4412C37.1673 85.5813 39.1406 83.0465 41.7644 81.7033C44.8003 80.0784 48.6601 80.1434 51.6526 81.8333C54.168 83.2198 56.0328 85.6897 56.7267 88.4628C59.871 88.4628 63.0369 88.4628 66.1812 88.4628C66.1812 82.0066 66.1812 75.5287 66.1812 69.0725C57.7025 69.0508 49.1805 69.0508 40.6585 69.0508ZM71.212 69.0508C71.212 75.5071 71.212 81.9849 71.212 88.4412C79.9509 88.4412 88.7114 88.4412 97.4503 88.4412C98.1659 85.5813 100.117 83.0682 102.741 81.7033C105.452 80.2517 108.813 80.1001 111.632 81.3133C114.646 82.5482 116.966 85.278 117.747 88.4412C119.287 88.4628 120.848 88.4412 122.387 88.4412C122.474 85.4514 122.388 82.3966 121.217 79.5801C119.048 79.5584 116.858 79.6018 114.689 79.5584C112.196 79.4718 109.854 77.8252 108.878 75.5287C108.011 73.5355 108.444 71.3257 108.336 69.2458C107.382 69.1158 106.428 69.0292 105.452 69.0508C94.0458 69.0508 82.6398 69.0508 71.212 69.0508ZM32.31 72.9939C32.0931 73.2106 31.7462 73.4055 31.8329 73.7738C31.8112 74.5971 31.8329 75.4204 31.8329 76.2653C32.4184 76.2653 33.0255 76.287 33.611 76.222C34.782 76.0704 35.6927 74.9654 35.6711 73.7955C35.6927 72.5389 35.6711 71.2607 35.6711 70.0041C34.5435 70.979 33.4375 71.9973 32.31 72.9939ZM113.345 70.8924C113.345 71.6073 113.323 72.3223 113.367 73.0372C113.388 73.8605 114.126 74.5971 114.95 74.5971C116.012 74.6404 117.096 74.5971 118.159 74.6188C116.771 73.1022 115.145 71.824 113.345 70.8924ZM45.1689 85.668C43.0221 86.2313 41.3307 88.2245 41.1789 90.456C40.9621 92.5575 42.133 94.724 43.9762 95.7206C45.5809 96.6306 47.6626 96.6306 49.2673 95.7206C51.0454 94.7674 52.1947 92.7309 52.0862 90.716C52.0212 88.8528 50.9153 87.0762 49.2889 86.188C48.0529 85.4514 46.5567 85.278 45.1689 85.668ZM106.341 85.603C104.281 86.0796 102.59 87.8345 102.243 89.9144C101.831 91.9292 102.72 94.1174 104.389 95.3307C105.951 96.5006 108.184 96.7172 109.941 95.8723C111.589 95.114 112.803 93.4675 113.041 91.6693C113.302 89.8494 112.564 87.9428 111.155 86.7729C109.832 85.6463 107.989 85.213 106.341 85.603Z" fill="#00194A"/>
<path d="M8.3489 68.7256C10.062 67.9674 12.1003 69.6789 11.6666 71.4988C11.4064 73.3186 8.93438 74.1853 7.58994 72.907C6.20213 71.7804 6.6575 69.3106 8.3489 68.7256Z" fill="#00194A"/>
<path d="M74.7249 72.387C75.8959 71.9971 77.1753 72.2571 78.3896 72.1921C79.4738 72.1054 80.7749 72.2571 81.4038 73.2753C82.4013 74.6186 81.5773 76.7634 79.9292 77.0884C78.5848 77.24 77.2403 77.11 75.8959 77.1534C74.8334 77.2184 73.7491 76.5901 73.3805 75.5718C72.8601 74.3802 73.5106 72.8637 74.7249 72.387Z" fill="#00194A"/>
<path d="M7.80694 78.5833C11.3415 78.4099 14.8978 78.5616 18.4324 78.4966C19.7768 78.3666 21.0996 79.3849 21.1863 80.7498C21.3598 82.158 20.1238 83.5229 18.6926 83.4579C15.2881 83.4796 11.8619 83.4579 8.45747 83.4579C7.30819 83.5012 6.20228 82.6346 5.96375 81.4864C5.68185 80.2515 6.54923 78.8649 7.80694 78.5833Z" fill="#00194A"/>
</svg>
