<svg width="112" height="107" viewBox="0 0 112 107" fill="none" xmlns="http://www.w3.org/2000/svg">
<path d="M62.7548 5.44344L73.7271 16.3843L77.4352 9.73314L74.6162 3.97021C74.6162 3.97021 70.6262 2.19366 70.1275 2.19366C69.6288 2.19366 62.7548 5.44344 62.7548 5.44344Z" fill="#387FF2"/>
<path d="M46.7298 20.674L33.1987 31.7882L31.3121 36.2512L45.4288 50.4202L49.5922 44.9389L50.0909 40.4326L56.0759 40.2592L57.2251 34.128L58.7864 25.4403L52.0642 20.674H46.7298Z" fill="#387FF2"/>
<path d="M108.445 78.2166C106.146 74.3385 102.373 71.3488 98.0359 70.0272C94.3929 68.8789 90.403 68.9439 86.7817 70.1138C83.4639 63.116 80.1679 56.1398 76.8501 49.142C78.2596 47.7771 78.9752 45.6972 78.5415 43.769C78.0862 41.2125 75.6792 39.1977 73.0987 39.176C68.0029 39.1327 62.9287 39.2193 57.8328 39.1327C57.8545 38.3744 57.8545 37.6161 57.8545 36.8578C60.1314 34.4097 61.3457 30.9216 60.847 27.5852C61.3674 27.6501 61.9095 27.6935 62.4733 27.6935C67.2439 27.6935 71.3423 24.812 73.1421 20.6956L76.4598 24.0104C76.9369 24.487 77.5441 24.7037 78.1512 24.7037C78.7584 24.7037 79.3872 24.4654 79.8426 24.0104C80.775 23.0788 80.775 21.5622 79.8426 20.6306L76.1779 16.9692C79.474 13.1562 79.3005 7.37157 75.6792 3.75349L74.7684 2.84355C70.9736 -0.94785 64.7935 -0.94785 60.9988 2.84355L58.8086 5.03173C54.1681 6.56996 50.807 10.9247 50.807 16.081C50.807 16.6226 50.8504 17.1642 50.9154 17.6842C47.6411 17.1642 44.1499 18.2041 41.7646 20.5223C40.4201 21.8439 39.0974 23.1871 37.7529 24.5304C36.9072 25.2886 36.7554 26.6752 37.471 27.5852C38.23 28.6684 39.9431 28.8417 40.8972 27.9101C42.1115 26.7402 43.2825 25.527 44.4968 24.3354C45.6461 23.1871 47.2074 22.4505 48.8337 22.2989C50.5251 22.1255 52.2599 22.6238 53.6043 23.6204C54.0163 24.1187 54.4717 24.552 54.9705 24.9853C55.9463 26.2636 56.3799 27.8885 56.3366 29.4917C54.9921 28.1701 53.0839 27.4118 51.1973 27.7151C48.5301 28.0401 46.34 30.4883 46.2966 33.1748C46.275 36.4895 46.2966 39.826 46.275 43.1407C46.2533 44.2673 46.3617 45.4156 46.8171 46.4772C47.7929 48.8387 50.1348 50.5502 52.6719 50.7019C54.5151 50.7885 56.3799 50.6585 58.2231 50.7885C55.9246 51.3951 53.6694 52.1318 51.3708 52.8034C45.3642 47.0188 39.3576 41.2342 33.3727 35.4279C34.3485 34.4313 35.3676 33.4564 36.3434 32.4598C37.2108 31.5932 37.1674 30.055 36.2784 29.2317C35.4327 28.3651 33.9148 28.3434 33.0691 29.21C31.5078 30.7483 29.9682 32.2865 28.4503 33.8247C26.7806 35.8396 25.7831 38.3961 25.5012 40.9959C25.3711 42.5991 25.6963 44.224 26.3035 45.6972C29.1225 51.6985 31.9415 57.6997 34.7605 63.7226C32.5703 66.4741 30.3585 69.2039 28.1684 71.9554C25.0024 70.0488 21.2944 69.0739 17.5863 69.2689C13.4879 69.4639 9.4763 71.0888 6.3971 73.7753C3.05768 76.6567 0.802487 80.7948 0.217005 85.1711C-0.433531 89.6341 0.67238 94.2921 3.20947 98.0186C6.44047 102.893 12.1001 105.97 17.9116 106.165H18.9958C23.5929 106.013 28.125 104.15 31.3994 100.922C34.3918 98.0402 36.3218 94.0972 36.8639 90.0024C38.5553 90.0024 40.2683 90.0024 41.9597 90.0024C42.632 92.5156 44.3667 94.7471 46.687 95.917C49.4409 97.3686 52.9321 97.2603 55.5993 95.6571C57.8111 94.3788 59.3507 92.1256 59.9579 89.6558C62.6251 88.8109 64.6418 86.276 64.7502 83.4596C64.9237 81.0547 63.6876 78.6716 61.7143 77.3067C66.5934 71.1971 71.4724 65.1092 76.3731 58.9996C78.4548 63.376 80.5148 67.7307 82.5965 72.107C77.6525 75.2485 74.3781 80.8381 74.1179 86.6877C73.8794 91.1507 75.3322 95.6787 78.1512 99.1668C80.5148 102.135 83.8326 104.345 87.4973 105.385C91.3571 106.49 95.5856 106.295 99.3153 104.821C102.785 103.5 105.777 101.052 107.859 97.9969C109.767 95.2021 110.851 91.8657 111.047 88.5076V86.7743C110.851 83.7845 110.006 80.8164 108.445 78.2166ZM71.3856 6.24498L72.2964 7.15492C73.2288 8.08652 73.7493 9.32143 73.7493 10.643C73.7493 11.7046 73.4023 12.7445 72.7735 13.5895L64.9453 5.76835C66.8753 4.33845 69.6292 4.4901 71.3856 6.24498ZM61.6927 9.2781L69.2606 16.8392C68.8702 20.2407 65.9645 22.9055 62.4516 22.9055C58.6785 22.9055 55.5993 19.829 55.5993 16.0593C55.621 12.5712 58.2882 9.66807 61.6927 9.2781ZM50.9371 33.1748C51.0456 31.9398 53.1056 31.9615 53.1923 33.1964C53.2574 35.1896 53.1923 37.1828 53.2357 39.1543C52.455 39.1977 51.6744 39.176 50.9154 39.176C50.9371 37.1611 50.8721 35.168 50.9371 33.1748ZM53.149 46.0872C51.9129 46.0872 50.9371 44.9823 50.8938 43.7907C58.2231 43.7907 65.5742 43.769 72.9252 43.7907C73.7709 43.7257 74.3131 44.7439 73.9444 45.4589C73.7493 45.9572 73.1855 46.1305 72.6867 46.0872C66.1597 46.0872 59.6543 46.1089 53.149 46.0872ZM31.6596 45.5456C30.0549 43.899 29.6863 41.2559 30.6187 39.1977C35.8664 44.2457 41.0924 49.2936 46.3183 54.3633C45.2124 55.4682 44.1065 56.5731 42.9789 57.678C39.2058 53.6267 35.3676 49.6403 31.6596 45.5456ZM27.7997 97.9752C25.4795 100.077 22.4437 101.355 19.3211 101.528C15.9383 101.745 12.5121 100.662 9.86662 98.5385C7.02595 96.307 5.11771 92.8839 4.72739 89.2875C4.38044 86.3627 5.00929 83.3079 6.48383 80.7514C8.15354 77.8483 10.9075 75.5951 14.0951 74.5335C17.7381 73.2986 21.9015 73.6669 25.241 75.5735C22.422 79.0832 19.603 82.6146 16.8057 86.1244C16.3286 86.6877 16.0901 87.4676 16.2636 88.2042C16.4804 89.2008 17.4345 89.9808 18.4754 89.9808C19.8198 90.0241 21.1643 89.9591 22.5304 90.0024C21.7497 91.259 20.4053 92.169 18.9091 92.2773C16.9358 92.4939 14.9191 91.2157 14.2252 89.3742C13.7265 88.2692 14.1818 86.796 13.1193 85.9511C11.9267 84.8028 9.69314 85.4961 9.36788 87.121C8.84745 91.7357 12.5772 96.2203 17.1309 96.827C19.9066 97.2603 22.8557 96.3503 24.8723 94.4005C26.13 93.2306 27.0191 91.6707 27.4745 90.0241C29.0574 90.0241 30.6404 90.0241 32.2234 90.0241C31.6596 93.0572 30.12 95.917 27.7997 97.9752ZM23.3327 85.3878C25.1759 83.0913 27.0191 80.7948 28.8623 78.4983C30.5754 80.4264 31.7463 82.853 32.18 85.3878C29.2526 85.3878 26.3035 85.3878 23.3327 85.3878ZM41.9814 85.3661C40.2683 85.3878 38.5769 85.3661 36.8639 85.3661C36.3651 81.423 34.5436 77.675 31.768 74.8152C33.1775 73.0603 34.587 71.3054 35.9965 69.5505C36.3001 69.1606 36.6036 68.7489 36.9723 68.424C39.1191 73.017 41.2875 77.61 43.4343 82.1813C42.8054 83.1779 42.285 84.2395 41.9814 85.3661ZM46.275 77.3067C43.3475 71.0888 40.3984 64.8709 37.5144 58.6313C40.225 61.4044 42.8488 64.2209 45.5377 67.0157C46.0364 67.514 46.3183 68.2073 46.2966 68.9006C46.275 71.7171 46.2966 74.5119 46.275 77.3067ZM46.1882 61.0361C47.3158 59.8446 48.5085 58.718 49.6577 57.5481C51.3708 59.1946 53.0839 60.8412 54.797 62.5094C55.2957 62.986 55.5559 63.6793 55.5342 64.3726C55.5342 68.294 55.5342 72.2154 55.5342 76.1367C53.9946 76.1367 52.455 76.1367 50.9154 76.1367C50.9154 73.6669 50.9154 71.1754 50.9154 68.7056C50.8938 66.9724 50.1999 65.2392 49.0072 63.9609C48.0748 62.986 47.1423 62.0111 46.1882 61.0361ZM52.043 92.169C50.1131 92.6889 47.9013 91.779 46.9472 90.0024C49.5927 90.0024 52.2382 90.0024 54.9054 90.0024C54.2549 91.064 53.2357 91.8873 52.043 92.169ZM60.1531 83.1996C60.1097 84.3478 59.0905 85.3661 57.9412 85.3661C55.5993 85.3878 53.2574 85.3661 50.9154 85.3878C50.9154 83.8495 50.9154 82.3113 50.9154 80.7731C53.2574 80.7731 55.5993 80.7514 57.9195 80.7731C59.1772 80.7731 60.2615 81.9647 60.1531 83.1996ZM60.1531 71.8471C60.1531 69.2906 60.1531 66.7124 60.1531 64.1559C60.1531 62.3794 59.4158 60.6028 58.1581 59.3463C57.1823 58.3713 56.1848 57.4397 55.209 56.4865C61.0421 54.7533 66.8536 52.9984 72.6867 51.2435C73.1855 52.2834 73.6842 53.3233 74.1613 54.3849C69.4991 60.1912 64.8369 66.0408 60.1531 71.8471ZM106.233 90.1758C105.669 93.3389 103.956 96.2853 101.462 98.3435C98.8383 100.532 95.3687 101.702 91.9643 101.528C88.7333 101.398 85.5456 100.077 83.182 97.8669C80.5365 95.4621 78.9102 91.974 78.715 88.3992C78.4331 83.7196 80.7317 78.9966 84.6132 76.3317C85.2854 77.7616 85.9576 79.1699 86.6299 80.5998C84.3964 82.398 83.1387 85.3228 83.3121 88.1826C83.4422 90.5657 84.5265 92.8839 86.3046 94.4871C88.2128 96.242 90.9017 97.1303 93.5039 96.8486C96.0193 96.6103 98.4046 95.2671 99.9225 93.2522C101.159 91.6273 101.852 89.5691 101.809 87.5326C101.787 86.4494 100.877 85.4961 99.8141 85.3661C98.6865 85.1928 97.5155 85.9944 97.277 87.121C97.1469 87.8143 97.1902 88.5509 96.93 89.2225C96.3662 90.8474 94.8266 92.0823 93.1135 92.2556C91.292 92.4939 89.3838 91.4973 88.5381 89.8725C87.7358 88.3992 87.7575 86.406 88.82 85.0845C89.4055 86.2977 89.9476 87.5326 90.5548 88.7242C91.0535 89.8075 92.4413 90.3274 93.5256 89.8291C94.6965 89.3742 95.282 87.8793 94.7182 86.7527C92.7666 82.593 90.7716 78.4549 88.8417 74.2952C91.5089 73.5586 94.3713 73.6019 96.9951 74.4902C100.053 75.4868 102.72 77.5883 104.411 80.3181C106.168 83.2646 106.862 86.8393 106.233 90.1758Z" fill="#00194A"/>
<path d="M20.8603 13.7411C22.4433 13.7411 24.0263 13.7628 25.6093 13.7411C26.9971 13.7194 28.0813 12.2462 27.7127 10.903C27.4741 9.77639 26.3032 9.01811 25.1756 9.12643C23.4842 9.2131 21.7494 8.97478 20.0797 9.25643C19.0822 9.60307 18.41 10.6647 18.5618 11.7046C18.6702 12.8528 19.7111 13.7844 20.8603 13.7411Z" fill="#00194A"/>
<path d="M34.7384 13.7411C37.8393 13.7411 40.9185 13.7628 44.0194 13.7411C45.212 13.7628 46.2746 12.7012 46.2746 11.5096C46.3396 10.2964 45.2771 9.1481 44.0627 9.1481C41.157 9.10477 38.273 9.1481 35.3672 9.12644C34.8902 9.12644 34.4131 9.10477 33.9578 9.25643C32.9603 9.5814 32.288 10.643 32.4398 11.6829C32.5266 12.8312 33.5891 13.7628 34.7384 13.7411Z" fill="#00194A"/>
<path d="M2.3853 22.9922C7.67632 23.0138 12.9457 22.9922 18.2367 22.9922C19.1474 23.0571 20.0799 22.6238 20.5136 21.8222C21.0991 20.8473 20.7955 19.4391 19.8413 18.8108C19.3209 18.4208 18.6487 18.3775 17.9982 18.3775C12.7939 18.3991 7.58959 18.3775 2.3853 18.3775C1.21433 18.3125 0.195161 19.2441 0 20.3707V21.0856C0.281899 22.1472 1.2577 23.0355 2.3853 22.9922Z" fill="#00194A"/>
<path d="M25.5008 21.0206C25.6525 22.1256 26.6717 23.0138 27.7776 22.9922C29.4473 22.9922 31.117 23.0572 32.7868 22.9488C34.4998 22.7539 35.3455 20.4574 34.1746 19.2008C33.3072 18.1175 31.811 18.4208 30.5966 18.3775C29.3823 18.4425 28.1463 18.2258 26.9753 18.5292C25.9778 18.8758 25.3273 19.9807 25.5008 21.0206Z" fill="#00194A"/>
<path d="M21.7061 27.6068C17.4125 27.6501 13.0973 27.5202 8.80377 27.6718C7.67618 27.8885 6.85216 29.015 6.98227 30.1633C7.06901 31.3332 8.17492 32.2865 9.3242 32.2432C13.878 32.2432 18.4534 32.2432 23.0071 32.2432C23.7878 32.2648 24.5684 31.9182 25.0238 31.2899C25.7394 30.3366 25.5442 28.8634 24.6118 28.1484C23.7878 27.4335 22.6819 27.6285 21.7061 27.6068Z" fill="#00194A"/>
</svg>
