<svg width="95" height="96" viewBox="0 0 95 96" fill="none" xmlns="http://www.w3.org/2000/svg">
<path d="M78.3309 33.0645H10.1016V76.4414H78.3309V33.0645Z" fill="#FFBF00"/>
<path d="M77.1 94.209C85.6209 94.209 92.5285 87.2161 92.5285 78.5898C92.5285 69.9636 85.6209 62.9707 77.1 62.9707C68.579 62.9707 61.6714 69.9636 61.6714 78.5898C61.6714 87.2161 68.579 94.209 77.1 94.209Z" fill="#387FF2"/>
<path d="M23.9386 0H25.127C27.037 0.257812 28.7985 1.50391 29.5837 3.28711C30.2204 4.57617 30.0718 6.05859 30.0718 7.45508C40.025 7.45508 49.9995 7.45508 59.9527 7.45508C59.9739 6.10156 59.8253 4.68359 60.3983 3.41601C61.1411 1.56836 62.945 0.279297 64.8762 0H66.0647C67.9747 0.257812 69.7361 1.50391 70.5213 3.30859C71.1368 4.59766 71.0094 6.08008 71.0094 7.47656C75.5722 7.49805 80.1137 7.45508 84.6553 7.49805C87.5203 7.5625 90.0033 10.1836 90.0033 13.084C90.0245 30.7656 90.0033 48.4473 90.0033 66.1504C90.0457 66.6445 90.5338 66.9453 90.8097 67.3535C92.9532 70.125 94.1841 73.5625 94.4387 77.0644V78.5898C94.3326 81.6836 93.4413 84.7559 91.8071 87.3769C89.7274 90.75 86.5016 93.3711 82.809 94.6601C81.3022 95.2187 79.7105 95.4766 78.1188 95.6484H76.6121C73.5136 95.541 70.4364 94.6172 67.8261 92.8984C65.8949 91.6738 64.2396 90.041 62.9238 88.1719C57.2787 88.1934 51.6123 88.1719 45.9672 88.1719C45.0547 88.2793 44.0573 87.7851 43.7814 86.8613C43.3782 85.7012 44.3756 84.3691 45.564 84.4551C50.6998 84.4336 55.8143 84.4551 60.9501 84.4551C60.3134 82.7793 59.9315 81.0176 59.8041 79.2344C43.4843 79.2344 27.1856 79.2344 10.8657 79.2344C10.2079 79.2773 9.50753 78.9551 9.16797 78.3965C8.74353 77.7519 8.89209 76.957 8.84964 76.248C8.84964 62.3047 8.84964 48.3613 8.84964 34.418C8.87086 33.709 8.74351 32.9141 9.14673 32.291C9.50751 31.6895 10.2079 31.3887 10.8657 31.4316C33.6159 31.4316 56.3661 31.4316 79.1375 31.4316C79.7742 31.4102 80.4109 31.6465 80.7929 32.1836C81.3022 32.8066 81.1536 33.666 81.1749 34.418C81.1749 43.291 81.1536 52.1641 81.1749 61.0586C83 61.4883 84.7402 62.2617 86.3319 63.25C86.3319 50.8965 86.3319 38.5644 86.3319 26.2109C63.1572 26.2109 39.9613 26.2109 16.7867 26.2109C16.2562 26.2324 15.6832 26.0605 15.3012 25.6738C14.6433 25.0508 14.5797 23.9336 15.1314 23.2246C15.5134 22.6875 16.1713 22.4512 16.7867 22.4727C39.9613 22.4727 63.136 22.4727 86.3106 22.4727C86.3106 19.4219 86.3106 16.3711 86.3106 13.2988C86.3743 12.2031 85.3981 11.1934 84.2945 11.2578C79.8591 11.2578 75.4237 11.2578 70.9882 11.2578C70.967 12.418 71.0943 13.6211 70.7547 14.7383C70.3091 16.2207 69.248 17.4883 67.8686 18.1543C66.3406 18.9062 64.4518 18.8848 62.945 18.0898C61.5868 17.3809 60.5257 16.0918 60.1225 14.5879C59.8254 13.4922 59.9527 12.3535 59.9102 11.2363C49.957 11.2363 39.9826 11.2363 30.0294 11.2363C30.0082 12.3535 30.1355 13.4922 29.8172 14.5879C29.4139 16.0918 28.3741 17.3809 26.9946 18.0898C25.4029 18.9277 23.4081 18.9062 21.8376 18.0254C20.5643 17.3379 19.5881 16.1348 19.1848 14.7383C18.8241 13.5996 18.9726 12.418 18.9514 11.2363C14.516 11.2363 10.0805 11.2363 5.66631 11.2363C4.77498 11.1934 3.88366 11.8379 3.71388 12.7402C3.60777 13.3633 3.67143 13.9863 3.65021 14.6094C3.65021 36.8242 3.65021 59.0391 3.65021 81.2754C3.67143 82.0059 3.54408 82.7793 3.90486 83.4453C4.24442 84.0898 4.966 84.4766 5.68756 84.4551C13.9854 84.4766 22.2833 84.4551 30.6024 84.4551C31.3239 84.4121 32.0455 84.7988 32.385 85.4648C32.8307 86.2598 32.5548 87.3769 31.7908 87.8711C31.2391 88.2793 30.5175 88.1934 29.8808 88.1934C22.0074 88.1934 14.134 88.1934 6.26054 88.1934C5.19944 88.2148 4.09589 88.1074 3.14089 87.5918C1.40067 86.7539 0.233444 84.9707 0 83.0371V12.6328C0.148555 11.6445 0.466888 10.6562 1.06111 9.86133C2.101 8.35742 3.90486 7.43359 5.70875 7.47656C10.1442 7.47656 14.5796 7.47656 18.9939 7.47656C19.0151 6.12305 18.8665 4.70508 19.4395 3.4375C20.2035 1.56836 21.9862 0.279297 23.9386 0ZM23.8962 3.86719C23.1958 4.125 22.6865 4.85547 22.7077 5.60742C22.7077 8.09961 22.6865 10.6133 22.7077 13.1055C22.6865 14.0937 23.5566 14.9746 24.5328 14.9531C25.509 14.9746 26.4004 14.0937 26.3792 13.1055C26.4004 10.6133 26.4004 8.09961 26.3792 5.60742C26.4429 4.36133 25.0421 3.37305 23.8962 3.86719ZM64.855 3.86719C64.1546 4.125 63.6453 4.85547 63.6666 5.60742C63.6666 8.09961 63.6453 10.6133 63.6666 13.1055C63.6453 14.0937 64.5367 14.9746 65.5129 14.9531C66.4891 14.9746 67.3592 14.0937 67.338 13.1055C67.3592 10.6133 67.3592 8.09961 67.338 5.60742C67.3804 4.33984 66.001 3.37305 64.855 3.86719ZM12.5635 35.1055C12.5635 38.7793 12.5635 42.4531 12.5635 46.1269C15.9166 46.1269 19.2485 46.1269 22.6016 46.1269C22.6016 42.4531 22.6016 38.7793 22.6016 35.1055C19.2485 35.1055 15.9166 35.1055 12.5635 35.1055ZM26.2731 35.1269C26.2943 38.7793 26.2943 42.4531 26.2731 46.1055C29.6262 46.1269 32.9792 46.1055 36.3111 46.1055C36.3111 42.4316 36.3111 38.7578 36.3111 35.084C32.9792 35.127 29.6262 35.084 26.2731 35.1269ZM40.0038 35.1055C40.0038 38.7793 40.0038 42.4531 40.0038 46.1269C43.3569 46.1269 46.6888 46.1269 50.0419 46.1269C50.0419 42.4531 50.0419 38.7793 50.0419 35.1055C46.6888 35.1055 43.3569 35.1055 40.0038 35.1055ZM53.7346 35.1269C53.7346 38.8008 53.7346 42.4746 53.7346 46.1269C57.0877 46.1269 60.4408 46.1484 63.7727 46.1055C63.7514 42.4531 63.7514 38.7793 63.7727 35.1269C60.4408 35.1055 57.0877 35.1269 53.7346 35.1269ZM67.4653 35.1055C67.4653 38.7793 67.4653 42.4531 67.4653 46.1269C70.8184 46.1269 74.1503 46.1269 77.5034 46.1269C77.5034 42.4531 77.5034 38.7793 77.5034 35.1055C74.1503 35.1055 70.7972 35.1055 67.4653 35.1055ZM12.5635 49.8652C12.5635 53.4746 12.5635 57.084 12.5635 60.6934C15.9166 60.6934 19.2485 60.6934 22.6016 60.6934C22.6016 57.084 22.6016 53.4746 22.6016 49.8652C19.2485 49.8652 15.9166 49.8652 12.5635 49.8652ZM26.2731 49.8867C26.2943 53.4961 26.2943 57.084 26.2731 60.6934C29.6262 60.7148 32.9792 60.6934 36.3111 60.6934C36.3111 57.084 36.3111 53.4746 36.3111 49.8652C32.9792 49.8652 29.6262 49.8437 26.2731 49.8867ZM40.0038 49.8652C40.0038 53.4746 40.0038 57.084 40.0038 60.6934C43.3357 60.6934 46.6888 60.6934 50.0419 60.6934C50.0419 57.084 50.0419 53.4746 50.0419 49.8652C46.6888 49.8652 43.3569 49.8652 40.0038 49.8652ZM53.7346 49.8652C53.7346 53.4746 53.7346 57.084 53.7346 60.6934C57.0877 60.6934 60.4408 60.7148 63.7727 60.6719C63.7514 57.084 63.7514 53.4746 63.7727 49.8867C60.4408 49.8437 57.0877 49.8652 53.7346 49.8652ZM67.4653 49.8652C67.4653 53.4746 67.4653 57.084 67.4653 60.6934C69.821 60.6934 72.1979 60.7148 74.5536 60.6934C75.5298 60.6074 76.506 60.5 77.5034 60.5C77.5034 56.9551 77.5034 53.4102 77.5034 49.8652C74.1503 49.8652 70.7972 49.8652 67.4653 49.8652ZM75.2114 64.3887C70.5001 65.0332 66.2981 68.3633 64.5154 72.7891C63.1148 76.1621 63.136 80.1152 64.5791 83.4668C65.7463 86.2383 67.8261 88.6016 70.4152 90.084C75.1478 92.8769 81.5144 92.3398 85.7164 88.7949C87.8386 87.0547 89.4515 84.6484 90.2155 81.9844C91.0856 79.0625 90.9371 75.8613 89.8335 73.0254C88.6875 70.0391 86.4804 67.5039 83.7215 65.957C81.1536 64.5176 78.0976 63.959 75.2114 64.3887ZM12.5635 64.4316C12.5635 68.1055 12.5635 71.7793 12.5635 75.4531C15.9166 75.4531 19.2485 75.4531 22.6016 75.4531C22.6016 71.7793 22.6016 68.1055 22.6016 64.4316C19.2485 64.4316 15.9166 64.4316 12.5635 64.4316ZM26.2731 64.4531C26.2943 68.1055 26.2943 71.7793 26.2731 75.4316C29.6262 75.4531 32.9793 75.4531 36.3324 75.4316C36.3111 71.7578 36.3324 68.084 36.3324 64.4316C32.9793 64.4531 29.6262 64.4101 26.2731 64.4531ZM40.0038 64.4316C40.0038 68.1055 40.0038 71.7793 40.0038 75.4531C43.3569 75.4531 46.6888 75.4531 50.0419 75.4531C50.0419 71.7793 50.0419 68.1055 50.0419 64.4316C46.6888 64.4316 43.3569 64.4316 40.0038 64.4316ZM53.7346 64.4316C53.7346 68.1055 53.7346 71.7793 53.7346 75.4316C55.8143 75.4316 57.8941 75.4316 59.9739 75.4316C60.4408 72.3164 61.7565 69.373 63.709 66.9238C63.8575 66.1074 63.709 65.2695 63.7939 64.4316C60.4408 64.4101 57.0877 64.4316 53.7346 64.4316Z" fill="#00194A"/>
<path d="M8.59494 22.5372C9.86827 21.9786 11.3962 23.2676 11.0567 24.6212C10.8657 25.9747 9.04058 26.6192 8.04314 25.6739C6.98203 24.8575 7.32161 22.9669 8.59494 22.5372Z" fill="#00194A"/>
<path d="M82.4482 73.5625C83.1273 72.8105 84.4006 72.8105 85.0797 73.5625C85.8013 74.25 85.7589 75.5176 85.0373 76.2051C82.7029 78.5684 80.3897 80.9316 78.0552 83.2734C77.3761 83.9824 76.1452 83.9824 75.4661 83.2734C74.1715 81.9844 72.877 80.6738 71.6036 79.3633C70.9458 78.7188 70.9033 77.5371 71.5188 76.8496C72.1342 76.0762 73.3651 75.9687 74.1079 76.6348C75.0204 77.4941 75.8693 78.418 76.7606 79.2988C78.6494 77.4082 80.5382 75.4746 82.4482 73.5625Z" fill="#00194A"/>
<path d="M37.542 84.5196C38.8153 83.9824 40.3009 85.2715 39.9613 86.625C39.7491 87.9785 37.9664 88.6016 36.969 87.6992C35.9079 86.8614 36.2474 84.9492 37.542 84.5196Z" fill="#00194A"/>
</svg>
