<svg width="98" height="112" viewBox="0 0 98 112" fill="none" xmlns="http://www.w3.org/2000/svg">
<path d="M43.168 57.2827L59.5615 55.3979L58.3255 45.4752L56.3089 43.5904L61.6866 36.9392L50.9528 25.24L41.9537 25.695L39.0263 33.9927L43.168 57.2827Z" fill="#387FF2"/>
<path d="M56.3085 10.0961L36.3804 13.1292L37.4429 5.67642C37.4429 5.67642 43.1893 3.14159 43.5797 3.05493C43.97 2.96827 52.5137 3.05493 52.5137 3.05493L56.3085 10.0961Z" fill="#387FF2"/>
<path d="M84.4766 51.2597C84.5417 51.2597 84.5851 51.2597 84.6501 51.2597C85.279 51.2597 85.9295 51.3897 86.5584 51.4981C87.1872 51.628 87.8594 51.758 88.5316 51.758H88.5967C89.5075 51.758 90.4399 51.7364 91.3506 51.7364C92.5216 51.7147 93.7142 51.7147 94.9069 51.7147C95.5791 51.7147 96.3381 51.6714 96.8151 51.1298C97.3139 50.6531 97.3789 49.9165 97.3789 49.4182V48.6599C97.3789 46.3418 97.3789 43.9586 97.3789 41.5971C97.3789 40.9471 97.3139 40.2105 96.7934 39.7339C96.3381 39.2789 95.7309 39.2139 95.1671 39.2139C95.037 39.2139 94.8852 39.2139 94.7551 39.2139H94.6901C93.7793 39.2572 92.8686 39.2789 91.9795 39.3006C91.0904 39.3222 90.158 39.3439 89.2472 39.3872C88.5317 39.4089 87.9245 39.7989 87.3607 40.1672C86.7752 40.5355 86.2331 40.8821 85.6042 40.8821C85.5392 40.8821 85.4741 40.8821 85.3874 40.8605C80.2698 40.6655 74.1982 40.4488 68.0181 40.2322H67.9747C67.4109 40.2322 67.0423 39.7989 66.6519 39.3222C66.5218 39.1489 66.37 38.9756 66.2183 38.8456C66.1749 38.7806 66.1098 38.7156 66.0665 38.6723C65.8496 38.434 65.6545 38.1957 65.6761 37.8923C65.6545 35.5958 65.6545 33.321 65.6328 31.0245C65.6328 29.2479 65.6111 27.4497 65.6111 25.6732C66.9989 25.6515 68.365 25.6515 69.6878 25.6515H69.8179C71.0539 25.6515 72.3333 25.6515 73.6127 25.6299V26.3232C73.6127 27.9914 73.6127 29.6813 73.6127 31.3495C73.6127 31.9128 73.6127 32.7144 74.1548 33.2127C74.6319 33.7326 75.3258 33.7976 75.9546 33.7976H76.0197C77.1256 33.7976 78.2532 33.7976 79.3591 33.7976C80.6385 33.7976 81.9179 33.7976 83.1973 33.7976H83.2623C83.8044 33.7976 84.5634 33.7326 85.0188 33.191C85.5392 32.6927 85.5392 31.9561 85.5609 31.3495C85.5609 29.8112 85.5609 28.2947 85.5609 26.7565V25.5865H85.6476C86.6234 25.5865 87.6209 25.5865 88.5967 25.5865C89.5725 25.5865 90.57 25.5865 91.5458 25.5865C92.218 25.5865 92.9119 25.5865 93.5842 25.5865C93.5842 26.7131 93.5842 27.8614 93.5842 28.988C93.5842 31.3928 93.5841 33.906 93.6058 36.3325C93.5841 36.8091 93.7793 37.2641 94.1263 37.6324C94.4949 38.0007 94.9719 38.2173 95.4707 38.2173C95.5791 38.2173 95.6875 38.1957 95.796 38.174C96.7501 38.044 97.444 37.1124 97.3573 36.1158C97.3573 34.8376 97.3573 33.5593 97.3573 32.2811C97.3573 29.9846 97.3573 27.6014 97.3573 25.2616C97.3356 23.4417 95.7092 21.8385 93.8877 21.8385H93.8227C89.7894 21.8385 85.756 21.8168 81.7227 21.8168C79.3808 21.8168 65.6545 21.8168 65.6545 21.8168C65.5894 21.8168 65.5244 21.8168 65.4593 21.8168C63.5944 21.8168 61.9464 23.42 61.9247 25.2616C61.9031 27.0164 61.9031 28.793 61.9031 30.5262C61.9031 31.6311 61.9031 32.736 61.9031 33.841C59.7129 31.4578 57.2842 28.9446 54.4869 26.1932C53.793 25.5215 53.0124 24.9799 52.2968 24.5249C54.7038 22.7484 56.5036 20.1269 57.1975 17.2888C57.6312 15.7289 57.6095 14.0823 57.6095 12.5008C57.6095 12.3275 57.6095 12.1758 57.6095 12.0025C58.6937 11.8292 59.7563 11.6558 60.8405 11.4825C61.7513 11.3309 62.662 11.1792 63.5728 11.0276L63.7029 11.0059C64.2233 10.8976 64.8305 10.7892 65.1991 10.3343C65.546 9.96597 65.6978 9.46767 65.6761 8.94771C65.6328 8.42774 65.3942 7.95111 65.0256 7.6478C64.722 7.36615 64.2883 7.21449 63.7896 7.21449C63.6161 7.21449 63.4426 7.23616 63.2475 7.25782C62.2934 7.40948 61.3176 7.5828 60.3634 7.73446C59.3659 7.90778 58.3902 8.05943 57.3927 8.23276C57.2409 6.49954 57.0023 4.93965 56.1349 3.61808C54.9206 1.60322 52.7305 0.238317 50.2584 0H49.2176C48.1117 0.129991 47.0058 0.259982 45.8999 0.368307C44.2518 0.541628 42.5387 0.736615 40.8474 0.953266C37.6164 1.4299 34.9058 4.24637 34.5588 7.49614C34.4287 8.68772 34.6022 9.90097 34.754 11.0492C34.8191 11.5692 34.9058 12.0892 34.9492 12.6308C35.0359 13.2157 35.101 13.8007 35.166 14.364C35.3395 15.9455 35.513 17.5704 36.1635 19.087C37.0309 21.2752 38.6572 23.225 40.7173 24.5683C38.6789 25.9765 37.4863 28.4463 37.7031 30.9162C37.9633 34.3609 38.4838 37.8274 38.9608 41.1854C39.1126 42.182 39.2427 43.1786 39.3945 44.1752C38.9608 44.1752 38.5271 44.1752 38.0718 44.1752H36.1635C35.2094 44.1752 34.2553 44.1752 33.3012 44.1752H33.106C32.4771 44.1752 31.7615 44.1969 31.2845 44.6952C30.9158 45.0202 30.699 45.5185 30.699 46.0601C30.699 46.6017 30.9158 47.1 31.2845 47.425C31.7399 47.88 32.3904 47.945 33.0409 47.945H33.0843C34.5155 47.945 35.9684 47.945 37.3995 47.945H42.2352C43.3845 47.945 44.5337 47.945 45.6613 47.945C45.7047 47.945 45.7481 47.945 45.7698 47.945C46.5938 47.945 47.3094 47.5117 47.5913 46.8617C47.8515 46.3634 47.8515 45.7568 47.5696 45.2152C47.3093 44.6735 46.854 44.3269 46.3119 44.2402C45.9216 44.1969 45.4879 44.1752 44.9457 44.1752C44.7072 44.1752 44.4687 44.1752 44.2085 44.1752C43.9699 44.1752 43.7314 44.1752 43.4929 44.1752C43.3845 44.1752 43.2977 44.1752 43.1893 44.1752C43.1026 43.547 43.0158 42.9403 42.9074 42.312C42.387 38.7156 41.8232 35.0109 41.4762 31.3278C41.3244 30.0062 41.563 28.988 42.1701 28.3163C43.211 27.1681 44.7723 26.4748 46.3552 26.4748C46.6154 26.4748 46.8974 26.4965 47.1576 26.5398C49.0875 26.9081 50.9307 27.948 52.3619 29.4429C55.1158 32.1944 57.4144 34.5559 59.6479 37.0257L58.8455 37.8707C57.9565 38.8239 57.0457 39.7989 56.1349 40.7521C55.7013 40.3622 55.2459 39.9722 54.8122 39.5606C54.205 39.0189 53.5762 38.4556 52.969 37.914L52.9257 37.8707C52.492 37.4807 51.9932 37.0474 51.321 37.0474C51.2776 37.0474 51.2559 37.0474 51.2126 37.0474C50.6921 37.0474 50.1934 37.2857 49.8248 37.719C49.4561 38.1307 49.3043 38.6723 49.3694 39.1489C49.4128 39.7772 49.8681 40.2322 50.2801 40.6222C52.7955 42.832 55.3543 45.1285 57.5662 47.1C57.6312 48.205 57.7179 49.3315 57.783 50.4365C57.848 51.5197 57.9348 52.603 57.9998 53.6862C56.5687 53.8379 55.0941 53.9896 53.6846 54.1195C51.9715 54.2929 50.1934 54.4662 48.4369 54.6612C47.8948 54.6828 47.4178 54.9645 47.0708 55.4194C46.7456 55.8744 46.6155 56.416 46.7456 56.936C46.919 57.7809 47.7214 58.4309 48.6321 58.4309C48.7188 58.4309 48.8273 58.4309 48.8923 58.4092C50.8439 58.2359 52.8172 58.0193 54.7255 57.8243C55.8964 57.6943 57.0674 57.586 58.2384 57.456C58.2601 57.7376 58.2817 57.9976 58.2817 58.2793C58.3034 58.9292 58.3468 59.6225 58.4769 60.2724C58.607 60.9657 59.2358 61.3774 59.7996 61.6807C62.2717 63.0022 64.7654 64.3455 67.1941 65.6454C69.6227 66.9453 72.1165 68.3102 74.5885 69.6101C74.6752 69.6535 74.762 69.7184 74.8704 69.7618C75.4992 70.0868 76.1498 70.4334 76.4967 71.0617C76.7569 71.56 76.8437 72.1449 76.9304 72.6866C76.9521 72.8599 76.9955 73.0332 77.0172 73.2065C77.8629 78.0379 78.7085 82.8692 79.5326 87.7222C80.1614 91.3619 80.812 95.0017 81.4408 98.6414C80.9638 98.7281 80.465 98.8147 79.9879 98.9014C79.2073 99.0314 78.405 99.183 77.6243 99.3564C77.169 99.443 76.7569 99.7463 76.4967 100.158C76.2148 100.591 76.1281 101.09 76.2365 101.545C76.3883 102.389 77.1906 103.039 78.058 103.039C78.1665 103.039 78.2749 103.039 78.3833 103.018C79.7061 102.801 81.0505 102.541 82.3516 102.303C83.2406 102.13 84.1514 101.956 85.0404 101.805C85.1705 101.783 85.3006 101.761 85.4091 101.761C85.7343 101.761 85.9295 101.87 86.0379 102.065C86.1897 102.476 86.2548 102.931 86.2981 103.364C86.3198 103.473 86.3198 103.581 86.3415 103.689C84.4116 104.036 82.4817 104.404 80.5951 104.751C79.229 104.989 77.8629 105.249 76.4967 105.488C74.6752 95.7166 72.8537 85.9456 71.0322 76.1747C70.8804 75.1997 70.4468 74.4198 69.8179 73.9215C69.1674 73.4015 68.365 73.2499 67.6061 73.0982C67.3892 73.0549 67.1941 73.0116 66.9772 72.9682C64.2667 72.3833 60.7104 71.56 57.2192 70.4117L57.024 70.3467C55.3977 69.7834 53.728 69.2201 52.3619 68.1802C49.9982 66.447 48.2418 64.6921 46.9841 62.7856C46.1384 61.4857 45.6613 60.3591 45.5095 59.2325C45.3361 58.1493 45.1843 57.066 45.0108 55.9827C44.7506 54.2712 44.4687 52.538 44.2302 50.8264C44.1217 50.1765 43.9483 49.5265 43.4061 49.1799C43.1026 48.9416 42.7122 48.8116 42.3002 48.8116C41.5846 48.8116 40.9341 49.1799 40.6522 49.7648C40.3269 50.2631 40.4137 50.8481 40.4787 51.3681L40.5004 51.4981C40.6956 52.7763 40.9124 54.0329 41.1076 55.3111C41.3027 56.5894 41.4979 57.8459 41.7147 59.1242C41.8448 59.7741 41.6714 60.4458 41.5196 61.0957C41.4762 61.2907 41.4328 61.4857 41.3895 61.6807L40.9992 63.4789C39.8065 68.8518 38.6139 74.2248 37.4429 79.6194C37.3778 79.9227 37.2261 80.2044 36.9658 80.3777C33.6264 82.9992 30.287 85.6207 26.9693 88.2421C24.9526 89.8237 22.9576 91.4053 20.941 92.9868C20.0953 93.6151 19.2062 94.2217 18.3388 94.785C17.7967 95.1533 17.2329 95.5216 16.6908 95.9116C16.0186 96.3449 15.5632 97.0815 15.4114 97.9265C15.2596 98.7931 15.4548 99.6597 15.9535 100.331C17.2329 102.151 18.5557 103.971 19.8351 105.748C20.8976 107.221 21.9601 108.694 23.001 110.167C23.3696 110.731 23.9117 111.121 24.5623 111.229H24.584H24.9309H24.9526C25.7549 110.991 26.4272 110.492 27.0994 110.037C27.403 109.821 27.7065 109.626 28.0101 109.431C29.2678 108.672 30.1135 107.546 30.3304 106.354C30.5472 105.466 30.4171 104.469 29.9184 103.299C32.8024 101.003 35.6648 98.7064 38.5488 96.4099C41.4545 94.0917 44.3603 91.7736 47.266 89.4554C47.4395 89.3254 47.6129 89.1738 47.7864 89.0438C48.6104 88.4155 49.4561 87.7439 49.8464 86.7473C50.4536 85.274 51.0608 83.7575 51.6463 82.2842C52.2534 80.7677 52.904 79.1861 53.5328 77.6479C53.5762 77.5179 53.6412 77.3879 53.6846 77.2579C53.9231 76.673 54.1834 76.0663 54.0099 75.4164C53.8147 74.6148 53.0341 74.0298 52.1667 74.0298C51.9499 74.0298 51.733 74.0731 51.5595 74.1381C50.8222 74.3548 50.4753 75.0481 50.2584 75.633C49.673 77.1063 49.0658 78.6012 48.4803 80.0527C47.8515 81.591 47.2226 83.1725 46.5938 84.7541C46.3986 85.3607 45.8782 85.7507 45.3361 86.1623C45.1626 86.2923 44.9891 86.4223 44.8156 86.5739C38.6572 91.5136 33.0626 95.9766 27.7065 100.245C27.3813 99.8113 27.0777 99.3564 26.7524 98.9231C26.5139 98.5981 26.2754 98.2514 26.0368 97.9265C25.6682 97.4065 25.1911 96.8865 24.4972 96.8215C24.4105 96.7999 24.3238 96.7999 24.2153 96.7999C23.2829 96.7999 22.4155 97.5798 22.3505 98.4898C22.242 99.183 22.6757 99.7897 22.9793 100.223C23.5214 100.96 24.0418 101.675 24.5623 102.411C25.0827 103.148 25.6248 103.863 26.1453 104.599L26.232 104.708C26.5356 105.141 26.709 105.466 26.5139 105.769C26.2103 106.116 25.7983 106.376 25.408 106.614C25.3212 106.679 25.2345 106.723 25.1478 106.788C24.4756 105.856 23.8033 104.924 23.1311 103.993C21.8734 102.259 20.594 100.461 19.3363 98.6848C21.8083 97.0815 23.6515 95.76 25.2562 94.4167L30.2219 90.4953C33.3011 88.0688 36.3587 85.6423 39.4379 83.2375C40.3269 82.5875 40.9341 81.5476 41.1509 80.3127C41.8882 76.9546 42.6255 73.5965 43.3628 70.2384C43.7097 68.7002 44.035 67.1836 44.3819 65.6454C46.3336 68.2019 48.6104 70.3034 51.1692 71.9283C53.0558 73.0549 55.2025 73.7698 57.0674 74.3548C60.0599 75.2864 63.3559 76.1097 67.3892 76.9546C68.4951 82.8692 69.6227 88.8704 70.707 94.6984C71.4659 98.7497 72.2249 102.823 72.9838 106.874C73.2007 108.304 74.5668 109.431 76.0847 109.431C76.3232 109.431 76.5401 109.409 76.757 109.344C78.4917 109.041 80.2265 108.716 81.9612 108.412C83.9562 108.044 86.0379 107.676 88.0763 107.307C88.163 107.286 88.2497 107.264 88.3365 107.264C88.9436 107.156 89.6592 107.026 90.0496 106.441C90.5483 105.813 90.4399 105.033 90.3315 104.318C90.3098 104.188 90.2881 104.058 90.2664 103.928C90.2014 103.603 90.158 103.278 90.1146 102.953C89.9628 101.826 89.811 100.656 89.0304 99.7463C88.2281 98.6848 86.8403 98.0565 85.2356 98.0565C84.4983 93.8968 83.7827 89.7154 83.0455 85.5557C82.2215 80.876 81.3758 76.023 80.5518 71.2567C80.2482 69.4151 79.0121 67.7469 77.3641 66.8803L75.4125 65.8404C71.0756 63.5005 66.5869 61.0957 62.1633 58.7342C62.0332 56.936 61.9031 55.0945 61.7946 53.3179C61.7296 52.4513 61.6862 51.6064 61.6211 50.7398C61.7079 50.8048 61.8163 50.8914 61.9031 50.9564C61.9247 51.4114 61.9247 51.8664 61.9031 52.3213C61.8597 53.4263 61.8163 54.5528 62.4018 55.5494C63.0306 56.611 64.2233 57.3043 65.481 57.3043C65.5244 57.3043 65.5677 57.3043 65.6111 57.3043H69.4493H82.9587C86.58 57.3043 90.2014 57.3043 93.8227 57.3043H93.8444C95.449 57.3043 96.9236 56.1344 97.2055 54.6178C97.2922 54.1195 97.1404 53.5779 96.7718 53.1663C96.4031 52.733 95.9044 52.4947 95.3623 52.4947C95.2538 52.4947 95.1454 52.4947 95.0587 52.5163C94.4515 52.5813 94.0395 53.0363 93.6926 53.4479L93.6275 53.5129C87.3824 53.5563 81.0288 53.5562 74.8921 53.5779C71.8129 53.5779 68.7337 53.5996 65.6545 53.5996V52.1047C72.6369 51.7797 78.5134 51.5197 84.4766 51.2597ZM77.3641 29.0963C77.3641 27.9697 77.3641 26.8431 77.3641 25.7165C78.1014 25.7165 78.817 25.7165 79.5542 25.7165C80.2915 25.7165 81.0071 25.7165 81.7444 25.7165C81.7444 26.3015 81.7444 26.8648 81.7444 27.4497C81.7444 28.338 81.7444 29.2263 81.7444 30.1146C81.0505 30.1146 80.3783 30.1146 79.6844 30.1146C79.1856 30.1146 78.6652 30.1146 78.1665 30.1146H77.3858L77.3641 29.0963ZM92.4349 43.1136C92.8035 43.1136 93.1721 43.092 93.5408 43.092C93.5408 44.2619 93.5408 45.4318 93.5408 46.6234V47.945C92.8469 47.945 92.1313 47.9666 91.4374 47.9666C90.6134 47.9666 89.811 47.9883 88.987 47.9883C88.922 47.9883 88.8786 47.9883 88.8136 47.9883C88.163 47.9883 87.5125 47.8583 86.8836 47.7283C86.2331 47.5983 85.5609 47.4683 84.8887 47.4683C84.8019 47.4683 84.7152 47.4683 84.6501 47.4683C79.9012 47.6633 75.0872 47.88 70.4251 48.0966C68.7337 48.1833 67.0423 48.2483 65.3292 48.3349C65.2858 48.3349 65.2208 48.3349 65.1774 48.3349C64.7437 48.3349 64.2883 48.14 63.9197 47.7933C62.9222 46.905 61.9247 46.0168 60.9055 45.1285C60.2333 44.5435 59.5828 43.9586 58.9106 43.352C59.9731 42.2254 61.014 41.0988 62.0765 39.9939C62.5319 40.4922 62.9656 41.0121 63.421 41.5104C63.7462 41.8787 64.0715 42.247 64.3968 42.5937C65.2208 43.5036 66.4351 44.0669 67.7362 44.0886C71.2057 44.1969 74.7403 44.3269 78.1665 44.4569C80.8336 44.5435 83.5225 44.6519 86.1897 44.7385C86.2548 44.7385 86.3198 44.7385 86.3849 44.7385C87.2089 44.7385 87.9028 44.3052 88.5533 43.8719C88.9436 43.6119 89.3557 43.352 89.7677 43.2003C90.6784 43.1353 91.5675 43.1136 92.4349 43.1136ZM39.0259 15.1873V15.1656C43.9483 14.364 48.8923 13.5624 53.8147 12.7608C53.8581 15.5989 53.2726 17.9387 52.0583 19.6936C50.8439 21.4702 48.8706 22.6184 46.7672 22.7917C43.5579 22.7701 40.5004 20.4736 39.4812 17.3754C39.221 16.6605 39.1126 15.9022 39.0259 15.1873ZM46.4853 4.18137C47.3527 4.09471 48.2418 3.98639 49.1309 3.89973C49.3043 3.87806 49.4778 3.8564 49.6296 3.8564C50.8873 3.8564 52.145 4.54968 52.8172 5.61127C53.3593 6.39122 53.4461 7.36615 53.5328 8.29775C53.5545 8.5144 53.5762 8.73105 53.5979 8.94771C51.1909 9.33768 48.7839 9.72765 46.3552 10.1176C43.7531 10.5509 41.1293 10.9626 38.5271 11.3959C38.4838 11.0709 38.4621 10.7459 38.4187 10.4209C38.332 9.79265 38.2669 9.12103 38.2452 8.47107C38.2018 6.6512 39.7198 4.93965 41.5196 4.74467C43.1893 4.54968 44.859 4.37636 46.4853 4.18137Z" fill="#00194A"/>
<path d="M13.5036 38.8238C13.5253 38.8238 13.547 38.8238 13.5687 38.8238C15.607 38.8238 17.667 38.8455 19.7054 38.8455C20.9848 38.8455 26.1023 38.8455 27.3817 38.8455C28.9213 38.8455 30.4609 38.8455 31.9788 38.8455H32.0656C32.7161 38.8455 33.3883 38.7805 33.822 38.3038C34.2123 37.9572 34.4292 37.4372 34.4075 36.8739C34.3858 36.3107 34.1473 35.8124 33.7353 35.4874C33.2799 35.0757 32.6944 35.0324 32.1306 35.0324H31.7403C30.3742 35.0324 29.0297 35.0324 27.6636 35.0324C26.3842 35.0324 25.1048 35.0324 23.8471 35.0324C22.5678 35.0324 21.2883 35.0324 20.0306 35.0324C17.2984 35.0324 15.195 35.0324 13.1783 35.0757C12.7013 35.1191 12.2459 35.4007 11.9423 35.834C11.6387 36.2673 11.5086 36.809 11.6387 37.3073C11.8122 38.1522 12.6145 38.8238 13.5036 38.8238Z" fill="#00194A"/>
<path d="M24.7794 57.2826C25.7335 57.2826 26.5575 56.611 26.7093 55.7444C26.8178 55.2244 26.6876 54.6611 26.319 54.2278C25.9504 53.7729 25.4516 53.5129 24.9095 53.5129C24.8878 53.5129 24.8445 53.5129 24.8228 53.5129C22.3724 53.5129 19.9221 53.5129 17.4717 53.5129H8.42926C6.36923 53.5129 4.3309 53.5129 2.27087 53.5129H2.11906C1.7938 53.5129 1.46853 53.5345 1.14326 53.6645C0.254195 54.0328 -0.222849 55.1161 0.102419 56.0044C0.340949 56.7627 1.09989 57.2826 1.9239 57.2826C1.96727 57.2826 1.98895 57.2826 2.03232 57.2826C5.02479 57.2826 8.01726 57.2826 11.0097 57.2826H24.5842C24.671 57.2826 24.7143 57.2826 24.7794 57.2826Z" fill="#00194A"/>
<path d="M28.0967 62.7205C27.4462 62.7205 26.7956 62.7205 26.1451 62.7205C25.5162 62.7205 24.8874 62.7205 24.2369 62.7205C23.608 62.7205 22.9792 62.7205 22.3286 62.7205C21.0059 62.7205 19.965 62.7422 18.9892 62.7638C18.4905 62.8072 18.0351 63.0888 17.7098 63.5438C17.3845 63.9988 17.2978 64.5404 17.4062 65.0387C17.5797 65.8836 18.382 66.5119 19.2711 66.5119C19.3145 66.5119 19.3578 66.5119 19.3795 66.5119C20.2469 66.5119 21.136 66.5119 22.0034 66.5119H25.3861C26.3403 66.5119 27.316 66.5119 28.2702 66.5119H28.3352C28.9641 66.5119 29.658 66.5119 30.1567 66.0353C30.5687 65.6886 30.8073 65.1687 30.7856 64.6054C30.7856 64.0204 30.5254 63.5005 30.1134 63.1755C29.658 62.7638 29.0291 62.7205 28.4437 62.7205H28.0967Z" fill="#00194A"/>
</svg>
