<svg width="32" height="31" viewBox="0 0 32 31" fill="none" xmlns="http://www.w3.org/2000/svg">
<path fill-rule="evenodd" clip-rule="evenodd" d="M15.8442 0C19.9741 0 20.4808 0.0253368 22.1024 0.101347C23.724 0.177358 24.8134 0.430726 25.8016 0.810779C26.7897 1.19083 27.6512 1.72291 28.4873 2.55902C29.3234 3.39514 29.8555 4.25659 30.2355 5.24473C30.6156 6.20753 30.8689 7.32235 30.945 8.94391C31.021 10.5655 31.0463 11.0722 31.0463 15.2021C31.0463 19.332 31.021 19.8388 30.945 21.4603C30.8689 23.0819 30.6156 24.1714 30.2355 25.1595C29.8555 26.1476 29.3234 27.0091 28.4873 27.8452C27.6512 28.6813 26.7897 29.2134 25.8016 29.5934C24.8388 29.9735 23.724 30.2269 22.1024 30.3029C20.4808 30.3789 19.9741 30.4042 15.8442 30.4042C11.7143 30.4042 11.2076 30.3789 9.58599 30.3029C7.96444 30.2269 6.87495 29.9735 5.88681 29.5934C4.89868 29.2134 4.03723 28.6813 3.20111 27.8452C2.365 27.0091 1.83292 26.1476 1.45286 25.1595C1.07281 24.1967 0.819446 23.0819 0.743436 21.4603C0.667425 19.8388 0.64209 19.332 0.64209 15.2021C0.64209 11.0722 0.667425 10.5655 0.743436 8.94391C0.819446 7.32235 1.07281 6.23286 1.45286 5.24473C1.83292 4.25659 2.365 3.39514 3.20111 2.55902C4.03723 1.72291 4.89868 1.19083 5.88681 0.810779C6.84961 0.430726 7.96444 0.177358 9.58599 0.101347C11.2076 0.0253368 11.7143 0 15.8442 0ZM21.9757 2.83773C20.3795 2.76172 19.8981 2.76172 15.8442 2.76172C11.7903 2.76172 11.3089 2.78705 9.71268 2.83773C8.24314 2.91374 7.43236 3.14177 6.90029 3.3698C6.19085 3.64851 5.68412 3.97788 5.15205 4.50996C4.61997 5.04203 4.29059 5.54877 4.01189 6.2582C3.80919 6.79028 3.55582 7.60105 3.47981 9.07059C3.4038 10.6668 3.4038 11.1482 3.4038 15.2021C3.4038 19.256 3.42914 19.7374 3.47981 21.3336C3.55582 22.8032 3.78386 23.6139 4.01189 24.146C4.29059 24.8554 4.61997 25.3622 5.15205 25.8943C5.68412 26.4263 6.19085 26.7557 6.90029 27.0344C7.43236 27.2371 8.24314 27.4905 9.71268 27.5665C11.3089 27.6425 11.7903 27.6425 15.8442 27.6425C19.8981 27.6425 20.3795 27.6172 21.9757 27.5665C23.4452 27.4905 24.256 27.2624 24.7881 27.0344C25.4975 26.7557 26.0043 26.4263 26.5363 25.8943C27.0684 25.3622 27.3978 24.8554 27.6765 24.146C27.8792 23.6139 28.1326 22.8032 28.2086 21.3336C28.2846 19.7374 28.2846 19.256 28.2846 15.2021C28.2846 11.1482 28.2592 10.6668 28.2086 9.07059C28.1326 7.60105 27.9045 6.79028 27.6765 6.2582C27.3978 5.54877 27.0684 5.04203 26.5363 4.50996C26.0043 3.97788 25.4975 3.64851 24.7881 3.3698C24.2814 3.14177 23.4706 2.8884 21.9757 2.83773ZM15.8442 20.2441C18.6313 20.2441 20.9116 17.9892 20.9116 15.1768C20.9116 12.3897 18.6566 10.1094 15.8442 10.1094C13.0571 10.1094 10.7768 12.3644 10.7768 15.1768C10.7768 17.9892 13.0571 20.2441 15.8442 20.2441ZM15.8442 7.39836C20.1515 7.39836 23.6479 10.8948 23.6479 15.2021C23.6479 19.5094 20.1515 23.0059 15.8442 23.0059C11.5369 23.0059 8.04044 19.5094 8.04044 15.2021C8.04044 10.8695 11.5369 7.39836 15.8442 7.39836ZM25.7762 7.06898C25.7762 8.08245 24.9655 8.89323 23.952 8.89323C22.9385 8.89323 22.1277 8.08245 22.1277 7.06898C22.1277 6.05551 22.9385 5.24473 23.952 5.24473C24.9655 5.27006 25.7762 6.08084 25.7762 7.06898Z" fill="#FFBF00"/>
</svg>
