<svg width="34" height="27" viewBox="0 0 34 27" fill="none" xmlns="http://www.w3.org/2000/svg">
<path fill-rule="evenodd" clip-rule="evenodd" d="M3.01043 11.5789C11.7263 7.77841 17.5284 5.27006 20.4422 4.07923C28.7527 0.633421 30.4756 0.0253368 31.5904 0C31.8438 0 32.4012 0.0506738 32.7559 0.354716C33.0599 0.608084 33.1359 0.937463 33.1866 1.16549C33.2373 1.39353 33.288 1.9256 33.2373 2.33099C32.7812 7.04364 30.8303 18.5212 29.8421 23.8166C29.4114 26.0463 28.6006 26.8064 27.7899 26.8824C26.067 27.0344 24.7241 25.7422 23.0519 24.6274C20.4168 22.9045 18.9473 21.8404 16.3883 20.1428C13.4492 18.1919 15.3495 17.1277 17.0217 15.3795C17.4524 14.9234 25.1042 7.95577 25.2562 7.34768C25.2815 7.27167 25.2815 6.96763 25.1295 6.81561C24.9521 6.66359 24.6988 6.71426 24.5214 6.76494C24.268 6.81561 20.0621 9.60266 11.929 15.1008C10.7382 15.9115 9.64868 16.3169 8.68588 16.2916C7.62173 16.2663 5.56945 15.6835 4.04924 15.2021C2.17431 14.594 0.679432 14.2646 0.831453 13.2512C0.85679 12.6938 1.59157 12.1363 3.01043 11.5789Z" fill="#FFBF00"/>
</svg>
