<svg width="32" height="22" viewBox="0 0 32 22" fill="none" xmlns="http://www.w3.org/2000/svg">
<path d="M31.0463 3.39514C30.6916 2.05228 29.6274 1.01347 28.3099 0.658758C25.8776 1.20815e-07 16.1736 0 16.1736 0C16.1736 0 6.46957 1.20815e-07 4.03723 0.658758C2.69438 1.01347 1.65557 2.07762 1.30086 3.39514C0.642099 5.82747 0.64209 10.8695 0.64209 10.8695C0.64209 10.8695 0.642099 15.9115 1.30086 18.3439C1.65557 19.6867 2.71972 20.7255 4.03723 21.0803C6.46957 21.739 16.1736 21.739 16.1736 21.739C16.1736 21.739 25.8776 21.739 28.3099 21.0803C29.6528 20.7255 30.6916 19.6614 31.0463 18.3439C31.7051 15.9115 31.7051 10.8695 31.7051 10.8695C31.7051 10.8695 31.7051 5.82747 31.0463 3.39514ZM13.0571 15.5315V6.23286L21.1396 10.8948L13.0571 15.5315Z" fill="#FFBF00"/>
</svg>
