<svg width="101" height="103" viewBox="0 0 101 103" fill="none" xmlns="http://www.w3.org/2000/svg">
<path d="M79.0312 5.62891L79.392 22.1289H98.4071L79.0312 5.62891Z" fill="#FFBF00"/>
<path d="M26.0394 100.525C39.6237 100.525 50.6359 89.3771 50.6359 75.625C50.6359 61.8729 39.6237 50.7246 26.0394 50.7246C12.4551 50.7246 1.44287 61.8729 1.44287 75.625C1.44287 89.3771 12.4551 100.525 26.0394 100.525Z" fill="#387FF2"/>
<path d="M25.5516 102.201C21.9014 102.072 18.4846 101.256 15.3861 99.8164C9.95327 97.3242 5.47539 92.9629 2.8014 87.5703C0.403289 82.8008 -0.488042 77.2148 0.254734 71.8652C0.997511 66.4082 3.50173 61.2305 7.3005 57.2559C11.4813 52.8086 17.3174 49.8867 23.3233 49.2207L24.0024 49.1348V48.4473C24.0024 40.4766 24.0024 32.5059 24.0024 24.5137C24.0024 19.1855 24.0024 13.8574 24.0024 8.5293C23.9811 6.5957 24.5966 4.70508 25.7426 3.24414C27.2069 1.31055 29.5201 0.0859375 31.9395 0H78.3736C78.989 0.0644531 79.5408 0.322266 79.944 0.751953L99.7019 20.7539C100.254 21.2695 100.551 22 100.53 22.6875V22.7305C100.53 37.7695 100.53 52.8086 100.53 67.8476V90.4062C100.508 90.9219 100.53 91.4805 100.53 92.0176C100.551 93.7578 100.572 95.4121 99.9353 96.9375V96.959C98.7893 99.9453 95.7758 102.094 92.5925 102.201H25.5516ZM61.9901 77.9023C59.019 77.9023 56.0691 77.9023 53.098 77.9023H52.4189L52.3552 78.5898C51.6336 85.4648 48.132 91.9101 42.7416 96.293L41.065 97.668H43.2297C50.615 97.668 57.9791 97.668 65.3644 97.668C74.3626 97.668 83.3396 97.668 92.3378 97.668H92.3802C93.3352 97.668 94.2902 97.2383 95.0118 96.5078C95.7121 95.7773 96.1153 94.7891 96.0941 93.8223C96.0941 79.3203 96.0941 64.7969 96.0941 50.2734C96.0941 42.0234 96.0941 33.7949 96.0941 25.5449V24.7715C96.0941 24.7715 93.2504 24.7715 92.2317 24.7715H84.4431C82.4058 24.7715 80.3473 24.7715 78.3099 24.7715H78.2675C77.7157 24.7715 77.1639 24.5137 76.7395 24.084C76.3151 23.6543 76.0816 23.0742 76.1028 22.5371C76.1028 19.4219 76.1028 16.3281 76.1028 13.2344C76.1028 10.5918 76.1028 7.92773 76.1028 5.28516V4.51172H33.2977H33.1491C33.0642 4.51172 32.9581 4.51172 32.8732 4.51172C32.7671 4.51172 32.6822 4.51172 32.5761 4.51172C32.088 4.51172 31.5787 4.5332 31.0481 4.74805C29.5838 5.26367 28.5227 6.76758 28.5227 8.33594C28.5227 21.6992 28.5227 35.0625 28.5227 48.4258V49.1133L29.2018 49.1777C34.0405 49.6934 38.7518 51.6699 42.8052 54.9141L43.0174 55.0859H43.2721C47.8561 55.0859 52.6948 55.1074 58.9765 55.1074C61.9264 55.1074 73.7472 55.1074 76.7183 55.1074C78.798 55.1074 80.8566 55.1074 82.9364 55.1074C82.9788 55.1074 83.0637 55.1074 83.1274 55.1074C83.2547 55.1074 83.4033 55.1074 83.5306 55.1074C83.6579 55.1074 83.7853 55.1074 83.9338 55.1074C84.528 55.1074 84.9949 55.1504 85.3769 55.3867L85.4194 55.4082C86.3956 55.9238 86.8413 57.2344 86.4168 58.2227L86.3956 58.2656C86.0773 59.082 85.2284 59.6621 84.3583 59.6621C80.0714 59.6621 75.8057 59.6621 71.5188 59.6621H55.3475C53.1616 59.6621 47.3468 59.6621 47.3468 59.6621L48.132 60.8652C50.4664 64.4101 51.9308 68.4922 52.3976 72.6816L52.4825 73.3691H53.1616C58.1276 73.3691 63.0936 73.3691 68.0596 73.3691H83.4245C83.5306 73.3691 83.6367 73.3691 83.7428 73.3691C83.8489 73.3691 83.9338 73.3691 84.0399 73.3691C84.5068 73.3691 84.8888 73.3906 85.2071 73.541L85.2496 73.5625C86.1834 73.9492 86.7776 75.0664 86.5866 76.0547V76.0762C86.4168 77.0859 85.4406 77.9023 84.4219 77.9023H84.4007C80.9203 77.9023 77.4611 77.9023 73.9806 77.9023H61.9901ZM26.2307 53.582C25.3606 53.582 24.4905 53.625 23.6416 53.7324C19.8004 54.1836 16.1289 55.6875 13.0517 58.0937C9.08316 61.1445 6.23939 65.5273 5.07217 70.3828C3.88373 75.2812 4.4355 80.6953 6.62139 85.1855C8.97705 90.1269 13.2003 94.1016 18.2087 96.0996C20.7341 97.1309 23.4294 97.6465 26.2307 97.6465C28.7349 97.6465 31.1755 97.2168 33.4887 96.3789C38.6457 94.5527 43.0387 90.6641 45.5641 85.7226C47.9622 81.082 48.6413 75.4531 47.3892 70.3398C46.0522 64.7324 42.4657 59.7695 37.5633 56.7617C34.2102 54.6992 30.2841 53.582 26.2307 53.582ZM80.5383 9.625C80.5383 12.0957 80.5383 14.5879 80.5383 17.0586V20.2812H92.9108L91.6162 18.9707C88.3692 15.6836 85.101 12.375 81.854 9.08789L80.5595 7.77734L80.5383 9.625Z" fill="#00194A"/>
<path d="M62.2659 41.4219C54.923 41.4219 47.5801 41.4219 40.2372 41.4219H40.216C39.1761 41.4219 38.1787 40.541 38.0513 39.4883V39.4668C37.8603 38.3496 38.7092 37.1465 39.834 36.9531C40.0887 36.9102 40.3646 36.9102 40.598 36.9102C40.6829 36.9102 41.0649 36.9102 41.171 36.9102C41.171 36.9102 47.6013 36.9102 50.7847 36.9102H71.54C75.7844 36.9102 80.0501 36.9102 84.2945 36.9102H84.3582C84.9099 36.9102 85.4617 37.168 85.8862 37.5977C86.3106 38.0273 86.544 38.6074 86.544 39.166V39.1875C86.5653 39.7461 86.3106 40.3262 85.9074 40.7559C85.4829 41.1855 84.9312 41.4434 84.3794 41.4434H84.3369C76.9516 41.4219 69.6087 41.4219 62.2659 41.4219Z" fill="#00194A"/>
<path d="M22.0285 86.6035C21.7314 86.6035 21.4767 86.5391 21.2221 86.4316L21.1796 86.4102C20.7552 86.2598 20.4156 85.8945 20.0336 85.5078C19.9487 85.4219 19.8426 85.3145 19.7577 85.2285L18.3783 83.832C17.1262 82.5645 15.8953 81.3184 14.6432 80.0508L14.622 80.0293C14.0702 79.5352 13.7731 78.7832 13.8155 78.1172C13.858 77.2578 14.431 76.4844 15.1737 76.1836L15.195 76.1621C15.4496 76.0547 15.7255 75.9902 16.0226 75.9902C16.6168 75.9902 17.2111 76.2266 17.6143 76.6563C18.4844 77.5371 19.3545 78.3965 20.2034 79.2773C20.6278 79.707 21.0735 80.1582 21.4979 80.5879L22.0285 81.125L22.5591 80.5879C24.6388 78.4824 26.7186 76.377 28.7984 74.293C30.6872 72.3809 32.5759 70.4688 34.4647 68.5781C34.8679 68.1699 35.4409 67.9336 36.0564 67.9336C36.6718 67.9336 37.2448 68.1699 37.6268 68.5781L37.648 68.5996C38.0513 68.9863 38.2847 69.5664 38.2847 70.1895C38.2847 70.8125 38.0513 71.3926 37.648 71.7793C34.1676 75.3027 30.6872 78.8262 27.2067 82.3496L23.7051 85.873C23.2806 86.3242 22.6652 86.6035 22.0285 86.6035Z" fill="#00194A"/>
</svg>
