<svg width="109" height="51" viewBox="0 0 109 51" fill="none" xmlns="http://www.w3.org/2000/svg">
<path d="M31.4938 5.23145L26.358 14.0186L15.3013 16.8115L23.4081 26.3076L21.7952 37.1572L32.2578 32.4092L41.5955 37.1572L50.5513 23.7725L48.6201 15.8447L37.6694 14.126L34.189 5.23145H31.4938Z" fill="#387FF2"/>
<path d="M75.3387 5.23145L69.0782 14.4912L58.9552 16.8115L57.6606 31.4209L67.338 37.1357L75.3387 32.9033L85.5678 37.1357L86.7775 34.085V24.5889C86.7775 24.5889 92.9107 18.5088 93.1442 17.6494C93.3776 16.79 92.5499 15.1357 92.5499 15.1357H81.5993L77.8642 4.7373L75.3387 5.23145Z" fill="#387FF2"/>
<path d="M52.716 8.0459L46.0947 19.3682L33.9556 21.4307C33.9556 21.4307 32.6398 23.6221 34.6772 25.8135C36.7145 28.0049 42.02 34.3428 42.02 34.3428L39.9827 47.9854H43.1448L54.3289 43.4736L66.7014 49.0811L68.2718 47.2549L67.0622 33.8486L76.4424 24.3525L75.5935 22.5264L75.2327 21.667L61.6293 20.8291L56.8119 7.42285H52.8433L52.716 8.0459Z" fill="#FFBF00"/>
<path d="M13.5398 0.676758C14.6221 -0.225586 16.3199 -0.225586 17.381 0.676758C17.9116 1.10645 18.2086 1.72949 18.5057 2.33106C19.4395 4.26465 20.3946 6.19825 21.3071 8.13184C23.3232 8.43262 25.3181 8.71192 27.3342 9.0127C28.1194 7.46582 28.7985 5.85449 29.6474 4.35059C30.5175 2.80371 32.6822 2.28809 34.189 3.21191C34.9742 3.6416 35.441 4.43652 35.8018 5.20996C37.0115 7.72363 38.2424 10.2158 39.4521 12.7295C42.1473 13.1162 44.8213 13.5244 47.5165 13.9111C48.514 11.8701 49.5114 9.8291 50.4876 7.78809C50.8484 7.05762 51.2304 6.30566 51.8882 5.79004C53.1404 4.75879 55.0716 4.69434 56.4086 5.59668C57.1514 6.06934 57.6395 6.86426 58.0215 7.6377C59.0189 9.74317 60.0588 11.8057 61.0562 13.9111C63.7514 13.5244 66.4254 13.1377 69.1207 12.7295C70.3728 10.1729 71.6036 7.6377 72.8345 5.08105C73.1953 4.28613 73.7259 3.53418 74.5111 3.12598C75.9967 2.30957 78.0552 2.84668 78.9041 4.35059C79.753 5.87598 80.4321 7.46582 81.2173 9.03418C83.2334 8.75488 85.2283 8.4541 87.2444 8.15332C88.2419 6.06934 89.2605 4.00684 90.258 1.94434C90.64 1.14942 91.2554 0.440432 92.1043 0.18262C93.4837 -0.311521 95.1391 0.333009 95.7757 1.66504C96.8581 3.81348 97.898 6.00489 98.9591 8.17481C100.933 8.47559 102.906 8.75488 104.88 9.03418C105.75 9.16309 106.705 9.24903 107.427 9.8291C108.063 10.3018 108.382 11.0752 108.594 11.8057V12.6436C108.382 14.04 107.215 14.8994 106.302 15.8232C105.75 16.3389 105.283 16.9404 104.647 17.3271C103.84 17.7998 102.715 17.3057 102.439 16.4033C102.206 15.8018 102.461 15.1357 102.885 14.7061C103.649 13.8896 104.477 13.1592 105.262 12.3428C103.012 12.0205 100.763 11.6982 98.5134 11.3545C97.5159 11.2256 96.6246 10.5811 96.1789 9.67871C95.1391 7.59473 94.1416 5.51074 93.123 3.42676C92.2529 5.23145 91.3615 7.01465 90.4914 8.81934C90.0458 9.85059 89.3878 10.9678 88.2206 11.2256C86.4167 11.6338 84.5492 11.7627 82.7241 12.085C82.809 12.2998 82.9151 12.5147 83 12.7295C85.9923 13.2236 89.0059 13.5889 92.0194 14.083C93.5899 14.3408 94.7783 15.8662 94.7359 17.4561C94.7571 18.4658 94.2477 19.3682 93.5474 20.0557C91.7223 21.8604 89.8972 23.6221 88.0933 25.4482C89.3666 24.8252 90.5763 24.0947 91.8496 23.4717C92.741 23.0205 93.8021 23.1279 94.6722 23.6006C96.6459 24.6533 98.6407 25.7061 100.614 26.7588C100.445 25.5127 100.126 24.2666 100.02 23.0205C99.9353 21.8389 101.378 21.001 102.355 21.624C103.097 22.0107 103.182 22.9561 103.31 23.6865C103.479 24.8252 103.755 25.9424 103.819 27.1025C103.84 28.6494 102.482 30.0244 100.954 30.0889C100.126 30.1533 99.3835 29.7666 98.6832 29.3799C96.8368 28.3701 94.9481 27.3818 93.1017 26.3936C91.3615 27.3389 89.6001 28.2627 87.8598 29.1865C88.1782 31.1416 88.539 33.0752 88.8361 35.0303C89.0271 36.1904 88.6026 37.415 87.6901 38.167C86.6502 39.0908 85.0798 39.2412 83.8913 38.5537C81.281 37.1787 78.6919 35.7822 76.0815 34.4072C73.6622 35.6748 71.2853 36.9639 68.866 38.2314C69.248 40.5303 69.6512 42.8506 70.0545 45.1494C70.2242 46.0947 70.2879 47.1045 69.8847 47.9854C69.2692 49.4248 67.72 50.4131 66.1708 50.3271C65.1946 50.2842 64.3244 49.7686 63.4968 49.3174C61.4807 48.2002 59.4222 47.1689 57.3848 46.0518C56.6633 45.708 56.1963 44.8486 56.4935 44.0537C56.7693 43.1084 57.9366 42.6787 58.7643 43.1729C61.0563 44.3545 63.327 45.6006 65.5978 46.8037C65.9586 46.9541 66.383 47.2764 66.7438 46.9756C67.147 46.6963 66.9772 46.1377 66.9348 45.7295C66.3406 42.3564 65.7888 38.9834 65.2158 35.6318C65.0672 34.7939 65.0035 33.8916 65.3007 33.0752C65.5553 32.3447 66.0859 31.7432 66.6377 31.2061C69.057 28.8428 71.4339 26.458 73.8745 24.0947C74.1291 23.7939 74.596 23.4502 74.4687 22.9775C74.3413 22.4834 73.7471 22.4834 73.3651 22.376C70.3303 21.9463 67.2956 21.4951 64.282 21.0439C63.1997 20.8721 62.0325 20.8076 61.1199 20.1416C60.4196 19.6689 59.9951 18.917 59.6343 18.1865C58.1488 15.1143 56.642 12.0635 55.1777 8.99121C54.9655 8.62598 54.7957 8.11035 54.3076 8.08887C53.8195 8.11035 53.6497 8.62598 53.4375 8.99121C51.8883 12.2139 50.3178 15.415 48.7474 18.6162C48.1744 19.8623 46.9647 20.7002 45.6277 20.8506C42.126 21.3877 38.6244 21.8818 35.1227 22.3975C34.7619 22.4834 34.2102 22.5049 34.1253 22.9775C33.998 23.4072 34.4012 23.708 34.6346 23.9873C36.9054 26.2002 39.155 28.4346 41.4045 30.6475C42.0836 31.3135 42.8476 31.9795 43.2296 32.8818C43.6116 33.7842 43.5055 34.7939 43.3569 35.7393C42.7839 39.0479 42.2322 42.3779 41.6592 45.6865C41.6379 46.0947 41.4469 46.6533 41.8714 46.9326C42.2534 47.2119 42.6566 46.8896 43.0174 46.7393C45.1608 45.6006 47.3043 44.4619 49.4265 43.3018C49.8934 43.0654 50.4027 42.8076 50.9545 42.9365C51.7822 43.1084 52.3764 44.0322 52.1641 44.8701C52.0368 45.5791 51.3789 45.9443 50.8059 46.2451C48.6625 47.3623 46.5403 48.501 44.418 49.6396C43.7389 50.0049 43.0174 50.2842 42.2322 50.2627C40.7042 50.2627 39.2186 49.2314 38.6668 47.792C38.306 46.9326 38.3909 45.9658 38.5607 45.0635C38.9639 42.7646 39.3459 40.4658 39.7492 38.1455C37.6694 37.0283 35.5471 35.9326 33.4674 34.7939C33.1703 34.6436 32.852 34.4717 32.5336 34.3857C32.2365 34.4717 31.9819 34.6006 31.706 34.751C29.4352 35.9971 27.1644 37.2002 24.8724 38.4033C23.9174 38.9404 22.7078 39.0908 21.7103 38.5752C20.3521 37.9736 19.5244 36.4053 19.7791 34.9228C20.0762 32.9678 20.437 31.0127 20.7553 29.0791C19.0151 28.1338 17.2537 27.21 15.5134 26.2861C13.4549 27.3818 11.3963 28.4775 9.33776 29.5732C8.38276 30.1103 7.15189 30.1318 6.21811 29.5303C5.157 28.9072 4.58398 27.5967 4.81743 26.3721C5.19943 24.0088 5.62389 21.667 6.00589 19.3037C4.37178 17.6924 2.73765 16.0811 1.10354 14.4912C0.551767 13.9541 0.169777 13.2666 0 12.5147V11.6768C0.191 10.9678 0.466919 10.2588 1.03992 9.76465C1.74025 9.12012 2.73768 9.0127 3.62901 8.88379C5.64512 8.62598 7.64002 8.30371 9.6349 8.00293C10.5687 6.06934 11.5237 4.15723 12.4362 2.22364C12.7121 1.72949 13.0304 1.10645 13.5398 0.676758ZM15.3224 3.70606C14.325 5.68262 13.4124 7.68067 12.415 9.63575C11.9481 10.5811 10.9931 11.2256 9.97443 11.333C7.76732 11.6768 5.53898 11.9775 3.33187 12.3213C4.9872 13.9541 6.64254 15.5654 8.27665 17.2197C8.99821 17.9502 9.29535 19.0244 9.10435 20.0342C8.72235 22.29 8.34032 24.5244 7.95832 26.7803C9.99565 25.7061 12.0117 24.6103 14.0491 23.5361C14.8767 23.1064 15.8954 23.0635 16.7231 23.4717C17.9752 24.0732 19.1849 24.8037 20.437 25.4053C18.6331 23.5361 16.7443 21.7529 14.9192 19.9268C14.2613 19.2822 13.8156 18.4014 13.8369 17.4561C13.7944 15.8662 14.9829 14.3408 16.5533 14.083C19.5456 13.5889 22.5804 13.2451 25.5727 12.708C25.6576 12.4932 25.7637 12.2783 25.8486 12.0635C24.1933 11.8057 22.5168 11.5693 20.8614 11.333C19.864 11.2041 18.9514 10.5596 18.527 9.63575C17.572 7.72364 16.6594 5.81152 15.7257 3.89941C15.662 3.74902 15.4285 3.27637 15.3224 3.70606ZM28.459 14.0186C28.0345 14.8994 27.2281 15.5869 26.2943 15.8232C23.1959 16.4248 20.0125 16.6396 16.9141 17.3271C19.0787 19.54 21.3495 21.667 23.5142 23.8799C24.3843 24.7607 24.5541 26.1143 24.2782 27.2959C23.8113 30.1318 23.2595 32.9678 22.8563 35.8252C25.6788 34.5146 28.3529 32.9248 31.1117 31.5283C32.0031 31.0986 33.0854 31.1201 33.9767 31.5713C36.1202 32.6455 38.2 33.8486 40.3434 34.9228C40.301 34.4932 40.2585 34.0205 39.8977 33.7197C37.4572 31.3135 35.0378 28.9072 32.5761 26.501C31.8757 25.835 31.1966 25.04 31.0056 24.0518C30.4963 21.9463 32.0031 19.626 34.1465 19.3252C37.7543 18.7666 41.3833 18.2725 44.991 17.7139C45.5216 17.7139 45.8611 17.3271 46.0946 16.8975C43.8026 16.5322 41.5318 16.2314 39.2399 15.8877C38.1787 15.7588 37.2025 15.1357 36.6932 14.1904C35.2501 11.4189 34.0404 8.51856 32.4912 5.79004C31.0905 8.54004 29.8172 11.3115 28.459 14.0186ZM71.9432 14.2334C71.4339 15.2002 70.4365 15.8232 69.3754 15.9522C67.0834 16.2959 64.8126 16.6182 62.5206 16.9619C62.754 17.2842 62.9663 17.7354 63.4331 17.7354C66.6801 18.2295 69.9271 18.7022 73.1741 19.1748C74.1291 19.3252 75.169 19.3897 75.9754 19.9912C77.3973 20.9365 78.034 22.9131 77.4398 24.5244C77.2063 25.2334 76.7182 25.8135 76.2089 26.3291C73.7047 28.7998 71.2005 31.292 68.675 33.7627C68.3142 34.042 68.2505 34.5146 68.2293 34.9658C70.3728 33.8916 72.4738 32.71 74.6172 31.6143C75.6571 31.0771 76.9304 31.2061 77.9279 31.7861C80.5382 33.1182 83.0849 34.6436 85.7376 35.8682C85.3132 32.8818 84.7402 29.917 84.2521 26.9307C84.1247 26.2217 84.1672 25.4697 84.4855 24.8037C84.8675 23.9658 85.6103 23.3857 86.247 22.7412C88.0509 20.9365 89.8972 19.1748 91.6798 17.3486C88.5814 16.6611 85.3981 16.4463 82.2996 15.8447C81.3447 15.6084 80.5594 14.8994 80.135 14.0186C78.7768 11.3115 77.5034 8.54004 76.1028 5.85449C74.596 8.56152 73.3863 11.4619 71.9432 14.2334Z" fill="#00194A"/>
</svg>
