<svg width="91" height="92" viewBox="0 0 91 92" fill="none" xmlns="http://www.w3.org/2000/svg">
<path d="M78.2674 26.1465C80.131 26.1465 81.6417 24.6171 81.6417 22.7305C81.6417 20.8439 80.131 19.3145 78.2674 19.3145C76.4038 19.3145 74.8931 20.8439 74.8931 22.7305C74.8931 24.6171 76.4038 26.1465 78.2674 26.1465Z" fill="#FFBF00"/>
<path d="M2.52539 3.58789V41.5293L6.13316 43.9355H26.1669L59.1886 11.3438L80.8565 10.957L70.7547 1.69727H5.60261L2.52539 3.58789Z" fill="#387FF2"/>
<path d="M5.81488 0H72.0493C72.5162 0.0859375 72.9194 0.343749 73.2378 0.687499C76.1877 3.69531 79.1588 6.68164 82.1299 9.68945C82.9363 9.73242 83.7428 9.625 84.5492 9.75391C85.3981 10.0117 85.8862 10.8496 86.5441 11.4297C87.2232 10.8496 87.7325 9.92578 88.6663 9.73242C89.6637 9.51758 90.6824 10.334 90.7673 11.3438V11.7305C90.5763 12.7188 89.685 13.2773 89.0483 13.9863C89.6638 14.6738 90.4914 15.2109 90.7673 16.1562V42.1738C90.6612 42.5605 90.4914 42.9473 90.1943 43.2266C84.4643 49.0273 78.7343 54.8281 73.0043 60.6289C72.4313 61.3164 71.3702 61.5312 70.6274 60.9941C69.7149 60.4355 69.5664 58.9961 70.3304 58.2656C75.9542 52.5508 81.6205 46.8574 87.2232 41.1426C87.2232 33.1719 87.2232 25.2012 87.2232 17.2305C87.011 16.9941 86.7775 16.7578 86.5653 16.543C85.1859 17.8965 83.8276 19.293 82.4482 20.6895C82.8514 21.6348 83.0636 22.709 82.9151 23.7402C82.6816 25.502 81.5356 27.0918 79.944 27.8652C78.2886 28.7031 76.1877 28.5527 74.6597 27.4785C72.7497 26.2109 71.8584 23.6328 72.5587 21.4199C73.259 19.0352 75.7208 17.3809 78.1613 17.6602C78.7768 17.7031 79.3498 17.918 79.9228 18.1543C81.3022 16.7793 82.6392 15.4043 84.0187 14.0293C83.8064 13.7715 83.573 13.5352 83.3395 13.3203C75.4661 13.3203 67.5927 13.3203 59.7192 13.3203C44.4817 28.7461 29.2442 44.1719 14.0066 59.5977C12.8819 60.6289 12.8394 62.584 13.9218 63.6582C21.774 71.6289 29.6474 79.5781 37.4996 87.5273C38.5607 88.623 40.4707 88.5586 41.5106 87.4414C47.3679 81.5332 53.1828 75.6035 59.0401 69.6953C59.7405 68.9219 61.0987 68.9863 61.7141 69.8242C62.3083 70.5332 62.181 71.6719 61.4807 72.2949C55.6658 78.1816 49.8509 84.0684 44.0148 89.9766C42.9537 91.0938 41.4894 91.7383 39.9614 91.9102H38.9427C37.2874 91.7383 35.717 90.9434 34.6134 89.6973C26.8461 81.834 19.0788 73.9707 11.3114 66.0859C9.04066 63.7656 8.99821 59.6836 11.2265 57.3203C14.7494 53.7109 18.2935 50.166 21.8376 46.5566C16.6806 46.5566 11.5449 46.5566 6.3879 46.5566C4.45668 46.5781 2.54667 45.6113 1.35823 44.0859C0.594226 43.1406 0.191 41.959 0 40.7559V5.9082C0.191 4.36133 0.848898 2.87891 1.97367 1.80469C2.99234 0.773438 4.37178 0.193359 5.81488 0ZM3.54412 6.44531C3.54412 17.6387 3.54412 28.8106 3.54412 40.0039C3.45923 41.5508 4.83868 43.0117 6.3879 42.9688C12.7121 42.9688 19.0363 42.9688 25.3818 42.9688C27.7586 40.5625 30.1355 38.1777 32.4912 35.75C31.2603 35.9004 30.0082 35.6211 28.9683 34.9336C26.9522 33.666 25.9972 30.959 26.8036 28.6816C27.5889 26.1465 30.4326 24.5137 33.0005 25.1367C35.6108 25.6738 37.4996 28.4023 37.1176 31.0664C43.9724 24.127 50.8272 17.1875 57.6607 10.2695C58.0003 9.9043 58.5096 9.66797 59.0189 9.68945C65.046 9.68945 71.0944 9.68945 77.1215 9.68945C75.1053 7.64844 73.1104 5.60742 71.0943 3.58789C49.5326 3.58789 27.9496 3.58789 6.3879 3.58789C4.88112 3.56641 3.5229 4.91992 3.54412 6.44531ZM77.0153 21.291C75.7845 21.6992 75.4449 23.5039 76.4635 24.3203C77.3973 25.2441 79.1588 24.6211 79.3498 23.3105C79.6893 22.0215 78.2462 20.7539 77.0153 21.291ZM31.0693 28.7891C30.3902 29.1113 29.9657 29.9062 30.0931 30.6797C30.2204 31.625 31.1542 32.334 32.0667 32.1836C33.0854 32.0762 33.8282 30.9805 33.5523 29.9707C33.3189 28.8965 32.0243 28.2734 31.0693 28.7891Z" fill="#00194A"/>
<path d="M15.853 10.8711C18.4845 10.291 21.3283 12.0742 21.9862 14.7168C22.729 17.2305 21.3283 20.1309 18.909 21.1191C16.6382 22.1289 13.7732 21.248 12.4362 19.1426C11.4812 17.7031 11.269 15.791 11.9057 14.1797C12.5636 12.5039 14.0916 11.1934 15.853 10.8711ZM16.5109 14.3945C15.2375 14.6094 14.6433 16.3496 15.5347 17.2949C16.3199 18.3477 18.145 18.0039 18.5482 16.7578C19.0575 15.5117 17.8054 14.0508 16.5109 14.3945Z" fill="#00194A"/>
<path d="M29.138 11.3867C29.9869 11.1934 30.9207 11.7305 31.1753 12.5684C31.3876 13.127 31.239 13.75 30.9207 14.2442C27.1431 21.0117 23.3656 27.8008 19.588 34.5469C19.1211 35.4278 17.869 35.7071 17.0626 35.127C16.2986 34.6328 16.0439 33.4942 16.532 32.7207C20.3096 25.9531 24.0871 19.1856 27.8647 12.3965C28.1194 11.9024 28.5862 11.4942 29.138 11.3867Z" fill="#00194A"/>
<path d="M60.2497 27.1348C60.9288 26.4473 62.1597 26.5117 62.7752 27.2637C63.3694 27.9082 63.3694 28.9824 62.7752 29.6269C62.0324 30.4433 61.226 31.1953 60.4407 31.9902C61.2684 32.8281 62.1173 33.6875 62.945 34.5254C63.6877 33.7734 64.4305 33 65.1945 32.2695C65.7675 31.668 66.7437 31.5605 67.4228 32.0332C68.3142 32.5918 68.484 33.9668 67.7624 34.7187C66.9984 35.5137 66.2132 36.2871 65.4492 37.082C66.2769 37.9199 67.1257 38.7578 67.9322 39.6172C68.7386 38.8652 69.4814 38.0488 70.2878 37.2754C70.9669 36.6094 72.1554 36.6738 72.7709 37.4043C73.4075 38.0703 73.3651 39.2519 72.7072 39.8965C71.5187 41.0996 70.3515 42.3027 69.1631 43.4844C68.484 44.1504 67.3167 44.0859 66.68 43.3984C63.3694 40.0469 60.0587 36.6953 56.7481 33.3437C56.0265 32.6992 55.9629 31.4746 56.642 30.7871C57.8516 29.5625 59.0401 28.3379 60.2497 27.1348Z" fill="#00194A"/>
<path d="M47.3892 40.2617C47.8985 39.252 49.4053 39.0371 50.1693 39.8535C53.0979 42.7969 56.0266 45.7832 58.9553 48.7481C59.889 47.8242 60.7804 46.8789 61.7142 45.9551C62.3508 45.2676 63.5181 45.2461 64.1759 45.9121C64.8975 46.5567 64.8975 47.8027 64.2184 48.4902C62.9238 49.8223 61.6293 51.1113 60.3347 52.4434C59.889 52.9375 59.2099 53.1953 58.5733 53.0234C57.9578 52.8945 57.5546 52.3789 57.1514 51.9707C54.0105 48.791 50.8908 45.6328 47.7712 42.4746C47.1345 41.916 46.9647 40.9707 47.3892 40.2617Z" fill="#00194A"/>
<path d="M39.1974 48.4902C39.6855 47.7598 40.7041 47.502 41.4681 47.9316C45.8611 50.1875 50.2329 52.4434 54.6047 54.6992C55.2413 54.9785 55.7082 55.6445 55.7082 56.3535C55.7294 57.2773 54.9654 58.0938 54.0741 58.1582C53.3313 58.2227 52.7159 57.7285 52.0792 57.4277C50.8695 58.6309 49.6811 59.877 48.4714 61.0801C48.8747 61.918 49.5325 62.8633 49.002 63.8086C48.4502 65.0332 46.519 65.0977 45.9036 63.8945C43.6328 59.4258 41.4044 54.957 39.1549 50.4883C38.7941 49.8652 38.7941 49.0488 39.1974 48.4902ZM44.7151 53.625C45.3942 54.9785 46.0733 56.3535 46.7737 57.707C47.4316 57.041 48.0895 56.375 48.7473 55.709C47.4103 55.0215 46.0733 54.291 44.7151 53.625Z" fill="#00194A"/>
<path d="M31.7696 56.2031C32.5124 55.9023 33.4249 56.2031 33.8494 56.8906C34.295 57.5351 34.2314 58.4804 33.722 59.0605C32.8519 59.9843 31.9394 60.8437 31.0693 61.7675C30.4963 62.3906 30.475 63.4218 31.0056 64.0663C31.5998 64.8613 32.8519 64.9902 33.5735 64.2812C34.3587 63.5078 35.3561 62.9277 36.4385 62.7343C38.4546 62.3261 40.6617 63.2499 41.8077 64.9902C43.1659 66.9238 42.9961 69.7597 41.4469 71.5214C40.598 72.4453 39.6855 73.3261 38.7941 74.2285C38.2424 74.873 37.2661 75.0878 36.5234 74.6367C35.6108 74.1425 35.3349 72.789 36.014 71.9726C36.9266 70.9628 37.9452 70.0605 38.8366 69.0507C39.643 68.0195 38.9003 66.3007 37.5845 66.2363C36.4385 66.0644 35.8443 67.2245 34.9317 67.6542C32.8095 68.8788 29.8596 68.3417 28.3104 66.4081C26.7187 64.5605 26.6338 61.6171 28.1194 59.6835C28.7985 58.8242 29.6474 58.1152 30.3902 57.3203C30.8358 56.9335 31.1966 56.4179 31.7696 56.2031Z" fill="#00194A"/>
<path d="M65.1097 63.6152C66.2557 62.9277 67.8686 64.0019 67.6988 65.334C67.6564 66.6445 66.001 67.4609 64.9612 66.6875C63.8576 66 63.9425 64.1738 65.1097 63.6152Z" fill="#00194A"/>
</svg>
