<svg width="95" height="96" viewBox="0 0 95 96" fill="none" xmlns="http://www.w3.org/2000/svg">
<path d="M90.3005 24.3848H2.97119V39.9609H90.3005V24.3848Z" fill="#387FF2"/>
<path d="M38.752 25.6094V92.9629H55.1143V24.3848L38.752 25.6094Z" fill="#FFBF00"/>
<path d="M13.0729 95.5195C11.0356 95.4121 9.10433 94.5527 7.78856 93.1562C6.72745 92.0391 6.0059 90.6211 5.75123 89.1601C5.58146 88.1719 5.60266 87.1621 5.60266 86.0879C5.60266 85.8945 5.60266 85.7012 5.60266 85.5078C5.60266 80.0937 5.60266 74.7012 5.60266 69.2871C5.60266 61.0801 5.60266 52.5937 5.60266 44.2363V43.6777L5.09332 43.5059C2.24955 42.5176 0.169777 39.6816 0 36.6094V30.3359C0.0848887 29.541 0.169783 28.8105 0.403227 28.1445C1.146 25.8027 3.01355 23.9121 5.30555 23.1816C6.4091 22.7949 7.59756 22.7734 8.72234 22.7734C8.89212 22.7734 9.359 22.7734 9.359 22.7734H14.2189C15.853 22.7734 17.4659 22.7734 19.1 22.7734H20.5855L19.7154 21.5488C17.6993 18.7129 16.7443 15.2109 17.1263 11.9883C17.4871 8.67969 19.1 5.54297 21.583 3.37305C23.8325 1.35352 26.7824 0.150391 29.8808 0.0214845H30.7934C32.8307 0.0859376 35.7382 0.558594 38.1151 2.51367C40.8103 4.64062 42.4232 7.88476 43.8451 11C44.4393 12.375 45.0123 13.793 45.564 15.168C45.8612 15.8984 46.137 16.6074 46.4342 17.3379L46.6252 17.7891L47.092 17.8105H47.1981L47.7499 17.8535L47.9621 17.3379C48.2593 16.6289 48.5352 15.9199 48.8323 15.1895C49.7024 12.998 50.6149 10.7207 51.7185 8.59375V8.57227C53.3314 5.2207 55.3687 2.83594 57.7456 1.50391C59.3373 0.601562 61.2897 0.107422 63.5817 0H64.473C67.4866 0.128906 70.3728 1.26758 72.6011 3.17969C75.1478 5.34961 76.8455 8.48633 77.2275 11.8164C77.652 15.1035 76.7182 18.6484 74.6597 21.5273L73.7896 22.752H75.2751C76.0179 22.752 76.7607 22.752 77.5034 22.752C78.3311 22.752 79.1375 22.752 79.9652 22.752C80.7929 22.752 81.5993 22.752 82.427 22.752C84.146 22.752 85.483 22.752 86.7351 22.7734C89.0059 22.7949 91.213 23.8477 92.6136 25.5879C93.6535 26.8125 94.269 28.4883 94.3963 30.293V36.5879C94.2477 39.6602 92.1467 42.5176 89.303 43.5273L88.7936 43.6992V44.2578C88.7724 52.7227 88.7936 61.3164 88.7936 69.6523C88.7936 75.0234 88.7936 80.373 88.7936 85.7441V86.2383C88.7936 87.6348 88.8148 88.9668 88.3904 90.2129C87.6476 92.5547 85.7801 94.4453 83.4881 95.1758C82.7665 95.4336 82.0025 95.498 81.1961 95.584H13.0729V95.5195ZM72.4313 91.373C75.3176 91.373 78.225 91.373 81.1112 91.373H81.1536C82.0662 91.373 82.9788 90.9648 83.6367 90.2773C84.3158 89.5898 84.6765 88.666 84.6553 87.7422C84.6765 78.5898 84.6553 69.2441 84.6553 60.2207C84.6553 55.0644 84.6553 49.8867 84.6553 44.7305V43.957H57.6607V91.3945C57.6607 91.3945 60.8016 91.3945 61.9688 91.3945L72.4313 91.373ZM13.2639 91.373C16.3623 91.373 19.4395 91.373 22.538 91.373H32.3638C33.5523 91.373 36.7144 91.373 36.7144 91.373V43.9355H9.71977V44.709C9.71977 50.2734 9.71977 55.8379 9.71977 61.3809C9.71977 70.0176 9.71977 78.9766 9.71977 87.7637C9.69855 88.666 10.0806 89.5898 10.7384 90.2773C11.4176 90.9648 12.3089 91.373 13.2214 91.373H13.2639ZM40.8103 91.373H53.586V26.877H40.8103V91.373ZM74.8931 39.7891C78.8192 39.7891 82.7665 39.7891 86.6926 39.7891H86.7563C87.6689 39.7891 88.5814 39.3809 89.2393 38.6934C89.8972 38.0059 90.2792 37.082 90.258 36.1797C90.2792 34.3105 90.2792 32.3769 90.258 30.4863C90.2792 29.584 89.8972 28.6602 89.2393 27.9727C88.5602 27.2852 87.6689 26.877 86.7563 26.877H86.6926C83.1061 26.877 79.4983 26.877 75.8693 26.877H62.9026C61.3958 26.877 57.6395 26.877 57.6395 26.877V39.8105H62.2871L74.8931 39.7891ZM4.52034 37.8769C5.11456 39.0371 6.36667 39.7891 7.70366 39.7891C7.74611 39.7891 7.80976 39.7891 7.85221 39.7891C12.5211 39.7891 17.19 39.7891 21.8589 39.7891H36.6932V26.8555C36.6932 26.8555 32.9369 26.8555 31.4301 26.8555H18.4633C14.8555 26.8555 11.2478 26.8555 7.63999 26.8555H7.59755C5.77244 26.8555 4.18078 28.4023 4.09589 30.2285C4.07467 31.1953 4.07468 32.1621 4.07468 33.1074C4.07468 33.7305 4.07468 34.375 4.07468 35.0195C4.07468 35.1699 4.07468 35.2988 4.07468 35.4277C4.07468 36.2012 4.07467 37.082 4.52034 37.8769ZM38.1575 22.7305C39.7704 22.7305 41.3833 22.7305 42.9962 22.7305H44.1209L43.6965 21.6562C43.3782 20.8613 43.0598 20.0449 42.7415 19.2285C41.5318 16.1348 40.301 12.9336 38.7517 9.9043L38.7305 9.88281C37.6482 7.94922 36.4173 5.95117 34.3587 4.94141C33.1915 4.38281 31.8757 4.10352 30.5175 4.10352C29.3503 4.10352 28.1406 4.31836 27.0371 4.72656C24.5541 5.69336 22.538 7.75586 21.6679 10.2695C20.9463 12.2891 20.9463 14.5234 21.6679 16.543C22.5804 19.1426 24.7451 21.3125 27.3342 22.1934C28.65 22.6875 30.0718 22.7305 31.2815 22.7305C31.4513 22.7305 31.6211 22.7305 31.8121 22.7305H38.1575ZM63.8151 4.125C62.4357 4.125 61.1624 4.4043 59.9951 4.96289C57.9366 5.97266 56.6845 7.9707 55.6021 9.9043L55.5809 9.92578C54.0741 12.8691 52.8645 15.9844 51.6973 19.0137C51.3577 19.8945 50.9969 20.7969 50.6574 21.6777L50.2329 22.7305H63.6878C65.5341 22.709 67.0409 22.3438 68.293 21.6562C70.585 20.4746 72.3252 18.2402 72.9619 15.7051C73.5137 13.4707 73.2166 11.0859 72.1979 9.13086C71.2004 7.1543 69.4178 5.56445 67.338 4.74805C66.192 4.33984 64.9823 4.125 63.8151 4.125Z" fill="#00194A"/>
</svg>
