<svg width="81" height="110" viewBox="0 0 81 110" fill="none" xmlns="http://www.w3.org/2000/svg">
<path d="M16.7417 69.9961L3.26562 94.6816L18.6729 92.125L23.7238 107.229L40.3196 80.6738C40.3196 80.6738 25.9946 79.1699 16.7417 69.9961Z" fill="#FFBF00"/>
<path d="M64.0671 69.9961L77.5432 94.6816L62.1359 92.125L57.085 107.229L40.4893 80.6738C40.4893 80.6738 54.793 79.1699 64.0671 69.9961Z" fill="#FFBF00"/>
<path d="M39.2375 22.1504L35.2053 33.043L23.7241 35.9648L30.4516 45.0957L29.0084 56.6758L40.3199 51.5625L51.8647 57.5351L49.7001 44.8594L59.0166 35.8574L43.864 33.4082L39.2375 22.1504Z" fill="#387FF2"/>
<path d="M40.1499 0H40.5532C41.3172 0.128906 42.0387 0.644531 42.2934 1.39648C42.7603 2.53516 42.0175 3.95313 40.8503 4.23242C39.6406 4.59766 38.2824 3.63086 38.2187 2.36328C38.0702 1.18164 39.0039 0.0859375 40.1499 0Z" fill="#00194A"/>
<path d="M10.2479 13.5996C15.5322 7.58398 22.6204 3.22265 30.3453 1.26757C31.3003 1.00976 32.3826 1.54687 32.7646 2.4707C33.3376 3.67382 32.5099 5.19921 31.2366 5.45702C27.2044 6.53124 23.3207 8.29296 19.8827 10.6992C13.792 14.9101 9.05944 21.0547 6.49155 28.0586C3.96611 34.9121 3.56289 42.5391 5.30311 49.6289C6.80988 55.8379 9.99321 61.6172 14.3862 66.1934C19.0975 71.1348 25.2095 74.6797 31.8096 76.291C38.9615 78.0527 46.6439 77.5371 53.4987 74.7871C59.547 72.3809 64.9375 68.2773 68.906 63.0781C72.7472 58.0508 75.2514 52.0137 76.0579 45.7187C76.9704 38.8652 75.9518 31.7539 73.0655 25.4805C70.1793 19.1211 65.4256 13.6211 59.5682 9.90429C56.3849 7.86327 52.862 6.35937 49.2118 5.39257C48.0658 5.11327 47.3443 3.71679 47.7899 2.5996C48.1295 1.58984 49.2755 0.96679 50.2729 1.24609C60.1625 3.71679 68.9697 10.2266 74.3813 18.9492C78.6045 25.6738 80.7904 33.6875 80.5994 41.6582C80.4721 48.1465 78.7955 54.5918 75.7183 60.2852C73.5537 64.3242 70.6887 67.9551 67.3568 71.0488C71.6012 78.6113 75.8456 86.1953 80.0901 93.7578C80.5358 94.5098 80.5358 95.5195 79.984 96.207C79.4746 96.916 78.5409 97.1953 77.7344 96.9805C72.9382 95.9707 68.142 94.9609 63.3458 93.9512C61.648 98.7637 59.9715 103.576 58.2737 108.389C58.0402 109.205 57.3399 109.785 56.5122 109.936H55.9605C55.3026 109.807 54.6659 109.42 54.3476 108.797C49.6575 100.461 44.9674 92.1035 40.2773 83.7676C35.6084 92.0605 30.9607 100.354 26.2919 108.668C25.9735 109.334 25.3581 109.785 24.6365 109.936H24.106C23.2783 109.807 22.5355 109.205 22.3021 108.389C20.6043 103.576 18.9278 98.7637 17.2512 93.9512C12.3913 94.9609 7.55266 96.0137 2.69278 97.002C1.54678 97.3242 0.315896 96.4004 0.209785 95.1973C0.0824517 94.3594 0.613006 93.6504 0.995006 92.9629C5.09089 85.6797 9.16555 78.375 13.2614 71.0918C8.97455 67.1387 5.49411 62.2832 3.24456 56.8691C0.0824519 49.4355 -0.787658 41.0566 0.719117 33.1289C2.05611 25.9102 5.40922 19.0781 10.2479 13.5996ZM16.6145 73.8418C13.2402 79.8574 9.86588 85.873 6.49155 91.8887C10.3964 91.0938 14.3013 90.2344 18.2062 89.4394C19.2036 89.2031 20.3072 89.8262 20.6467 90.8145C22.0474 94.7676 23.4269 98.7422 24.8275 102.717C28.7961 95.6484 32.7858 88.5801 36.7544 81.4902C29.5176 80.8242 22.4719 78.1602 16.6145 73.8418ZM43.8638 81.4902C47.8324 88.5586 51.8221 95.6484 55.7907 102.717C57.1914 98.7422 58.5708 94.7676 59.9715 90.8145C60.311 89.8262 61.4146 89.2031 62.412 89.4609C66.3169 90.2773 70.2218 91.0937 74.1267 91.9101C70.7523 85.8945 67.378 79.8789 64.0249 73.8633C58.1464 78.1601 51.1218 80.8242 43.8638 81.4902Z" fill="#00194A"/>
<path d="M37.0303 8.7657C42.9088 8.14266 48.9572 9.19539 54.2839 11.8595C60.0776 14.7169 64.9799 19.422 68.1208 25.1153C71.198 30.6368 72.5775 37.0821 72.0469 43.3985C71.5376 50.0372 68.906 56.4825 64.6404 61.5528C60.5445 66.4942 54.9418 70.1466 48.7874 71.8653C42.4207 73.6485 35.5235 73.3692 29.3266 71.0489C23.1722 68.7716 17.7605 64.4747 14.0679 59.0177C10.3116 53.5391 8.3379 46.836 8.48645 40.1759C8.59256 33.5802 10.7997 27.0489 14.6621 21.7423C19.904 14.502 28.2019 9.64656 37.0303 8.7657ZM37.2425 13.0626C33.4013 13.4923 29.645 14.7598 26.3131 16.7579C21.2198 19.8087 17.1239 24.5352 14.8531 30.0782C12.5611 35.5997 12.1154 41.8731 13.5798 47.6739C15.129 53.9688 18.949 59.6192 24.1484 63.422C28.6263 66.7306 34.1441 68.6212 39.7043 68.7286C45.7314 68.879 51.8009 66.9454 56.6396 63.3145C61.5631 59.6622 65.2558 54.2911 66.8899 48.3184C68.5028 42.5391 68.2057 36.2657 66.041 30.6798C63.6641 24.4923 59.0589 19.2501 53.2653 16.1348C48.3842 13.5138 42.7178 12.4395 37.2425 13.0626Z" fill="#00194A"/>
<path d="M38.431 21.0976C39.0889 19.6581 41.3384 19.5722 42.0812 20.9472C43.8639 24.4706 45.5829 28.037 47.3655 31.5819C51.1643 32.162 54.9843 32.7206 58.7831 33.3222C59.9291 33.4726 60.7992 34.6972 60.5445 35.8573C60.4172 36.6308 59.8017 37.1464 59.2712 37.662C56.7457 40.1757 54.2415 42.6679 51.7161 45.1815C52.3315 48.9628 52.947 52.744 53.5836 56.5038C53.711 57.1483 53.6049 57.8358 53.2016 58.373C52.6074 59.1894 51.4402 59.4472 50.5701 58.9745C47.1321 57.1913 43.7365 55.3651 40.2985 53.5819C36.8181 55.4081 33.3589 57.2558 29.8785 59.039C28.5202 59.705 26.78 58.4374 26.971 56.912C27.5652 53.0019 28.2443 49.0917 28.881 45.1601C26.1221 42.4101 23.342 39.6601 20.6044 36.8886C19.7979 36.0722 19.8616 34.5898 20.7105 33.8378C21.2835 33.2792 22.1111 33.2792 22.8539 33.1503C26.3131 32.6347 29.7723 32.0976 33.2316 31.5605C34.993 28.1015 36.6908 24.5995 38.431 21.0976ZM40.2985 26.9198C39.0464 29.4335 37.8156 31.9472 36.5634 34.4608C36.2451 35.1483 35.5448 35.621 34.802 35.7069C32.0856 36.1151 29.3691 36.5448 26.6527 36.953C28.6263 38.9296 30.6 40.8847 32.5737 42.8612C33.1254 43.3769 33.3801 44.1933 33.2316 44.9452C32.7859 47.6952 32.319 50.4452 31.8733 53.1952C34.3563 51.9062 36.8393 50.5741 39.3223 49.2851C39.9802 48.9198 40.7867 48.9843 41.4233 49.3495C43.8639 50.6171 46.3044 51.9062 48.7238 53.1952C48.2781 50.4452 47.8112 47.6952 47.3655 44.9452C47.1745 44.1288 47.5141 43.2909 48.1083 42.7538C50.0395 40.8202 51.992 38.8866 53.9232 36.953C51.1431 36.5019 48.363 36.1151 45.5829 35.664C44.7764 35.5565 44.1822 34.912 43.8851 34.1815C42.6967 31.7538 41.5294 29.3261 40.2985 26.9198Z" fill="#00194A"/>
</svg>
